G04 #@! TF.GenerationSoftware,KiCad,Pcbnew,5.1.5-52549c5~84~ubuntu18.04.1*
G04 #@! TF.CreationDate,2019-12-06T09:50:21+01:00*
G04 #@! TF.ProjectId,esp8266_temperature_iot,65737038-3236-4365-9f74-656d70657261,rev?*
G04 #@! TF.SameCoordinates,Original*
G04 #@! TF.FileFunction,Legend,Top*
G04 #@! TF.FilePolarity,Positive*
%FSLAX46Y46*%
G04 Gerber Fmt 4.6, Leading zero omitted, Abs format (unit mm)*
G04 Created by KiCad (PCBNEW 5.1.5-52549c5~84~ubuntu18.04.1) date 2019-12-06 09:50:21*
%MOMM*%
%LPD*%
G04 APERTURE LIST*
%ADD10C,0.120000*%
%ADD11C,0.150000*%
%ADD12C,0.200000*%
G04 APERTURE END LIST*
D10*
X68580000Y-139065000D02*
X68580000Y-149860000D01*
X84455000Y-149860000D02*
X68580000Y-149860000D01*
X84455000Y-139065000D02*
X84455000Y-149860000D01*
X68580000Y-139065000D02*
X84455000Y-139065000D01*
D11*
X70048476Y-121356380D02*
X69572285Y-121356380D01*
X69572285Y-120356380D01*
X70381809Y-120975428D02*
X71143714Y-120975428D01*
X70762761Y-121356380D02*
X70762761Y-120594476D01*
X70048476Y-118816380D02*
X69572285Y-118816380D01*
X69572285Y-117816380D01*
X70381809Y-118435428D02*
X71143714Y-118435428D01*
X70104095Y-115324000D02*
X70008857Y-115276380D01*
X69866000Y-115276380D01*
X69723142Y-115324000D01*
X69627904Y-115419238D01*
X69580285Y-115514476D01*
X69532666Y-115704952D01*
X69532666Y-115847809D01*
X69580285Y-116038285D01*
X69627904Y-116133523D01*
X69723142Y-116228761D01*
X69866000Y-116276380D01*
X69961238Y-116276380D01*
X70104095Y-116228761D01*
X70151714Y-116181142D01*
X70151714Y-115847809D01*
X69961238Y-115847809D01*
X70580285Y-116276380D02*
X70580285Y-115276380D01*
X71151714Y-116276380D01*
X71151714Y-115276380D01*
X71627904Y-116276380D02*
X71627904Y-115276380D01*
X71866000Y-115276380D01*
X72008857Y-115324000D01*
X72104095Y-115419238D01*
X72151714Y-115514476D01*
X72199333Y-115704952D01*
X72199333Y-115847809D01*
X72151714Y-116038285D01*
X72104095Y-116133523D01*
X72008857Y-116228761D01*
X71866000Y-116276380D01*
X71627904Y-116276380D01*
X70064380Y-113736380D02*
X69731047Y-113260190D01*
X69492952Y-113736380D02*
X69492952Y-112736380D01*
X69873904Y-112736380D01*
X69969142Y-112784000D01*
X70016761Y-112831619D01*
X70064380Y-112926857D01*
X70064380Y-113069714D01*
X70016761Y-113164952D01*
X69969142Y-113212571D01*
X69873904Y-113260190D01*
X69492952Y-113260190D01*
X70445333Y-113688761D02*
X70588190Y-113736380D01*
X70826285Y-113736380D01*
X70921523Y-113688761D01*
X70969142Y-113641142D01*
X71016761Y-113545904D01*
X71016761Y-113450666D01*
X70969142Y-113355428D01*
X70921523Y-113307809D01*
X70826285Y-113260190D01*
X70635809Y-113212571D01*
X70540571Y-113164952D01*
X70492952Y-113117333D01*
X70445333Y-113022095D01*
X70445333Y-112926857D01*
X70492952Y-112831619D01*
X70540571Y-112784000D01*
X70635809Y-112736380D01*
X70873904Y-112736380D01*
X71016761Y-112784000D01*
X71302476Y-112736380D02*
X71873904Y-112736380D01*
X71588190Y-113736380D02*
X71588190Y-112736380D01*
D12*
X69154000Y-148714095D02*
X69106380Y-148809333D01*
X69106380Y-148952190D01*
X69154000Y-149095047D01*
X69249238Y-149190285D01*
X69344476Y-149237904D01*
X69534952Y-149285523D01*
X69677809Y-149285523D01*
X69868285Y-149237904D01*
X69963523Y-149190285D01*
X70058761Y-149095047D01*
X70106380Y-148952190D01*
X70106380Y-148856952D01*
X70058761Y-148714095D01*
X70011142Y-148666476D01*
X69677809Y-148666476D01*
X69677809Y-148856952D01*
X70106380Y-148237904D02*
X69106380Y-148237904D01*
X70106380Y-147666476D01*
X69106380Y-147666476D01*
X70106380Y-147190285D02*
X69106380Y-147190285D01*
X69106380Y-146952190D01*
X69154000Y-146809333D01*
X69249238Y-146714095D01*
X69344476Y-146666476D01*
X69534952Y-146618857D01*
X69677809Y-146618857D01*
X69868285Y-146666476D01*
X69963523Y-146714095D01*
X70058761Y-146809333D01*
X70106380Y-146952190D01*
X70106380Y-147190285D01*
X69725428Y-143904571D02*
X69725428Y-143142666D01*
X70106380Y-143523619D02*
X69344476Y-143523619D01*
X69106380Y-142190285D02*
X69106380Y-142666476D01*
X69582571Y-142714095D01*
X69534952Y-142666476D01*
X69487333Y-142571238D01*
X69487333Y-142333142D01*
X69534952Y-142237904D01*
X69582571Y-142190285D01*
X69677809Y-142142666D01*
X69915904Y-142142666D01*
X70011142Y-142190285D01*
X70058761Y-142237904D01*
X70106380Y-142333142D01*
X70106380Y-142571238D01*
X70058761Y-142666476D01*
X70011142Y-142714095D01*
X69106380Y-141856952D02*
X70106380Y-141523619D01*
X69106380Y-141190285D01*
X71806380Y-149237904D02*
X70806380Y-149237904D01*
X71806380Y-148666476D01*
X70806380Y-148666476D01*
X70806380Y-148333142D02*
X70806380Y-147761714D01*
X71806380Y-148047428D02*
X70806380Y-148047428D01*
X71711142Y-146856952D02*
X71758761Y-146904571D01*
X71806380Y-147047428D01*
X71806380Y-147142666D01*
X71758761Y-147285523D01*
X71663523Y-147380761D01*
X71568285Y-147428380D01*
X71377809Y-147476000D01*
X71234952Y-147476000D01*
X71044476Y-147428380D01*
X70949238Y-147380761D01*
X70854000Y-147285523D01*
X70806380Y-147142666D01*
X70806380Y-147047428D01*
X70854000Y-146904571D01*
X70901619Y-146856952D01*
X70806380Y-146237904D02*
X70806380Y-146142666D01*
X70854000Y-146047428D01*
X70901619Y-145999809D01*
X70996857Y-145952190D01*
X71187333Y-145904571D01*
X71425428Y-145904571D01*
X71615904Y-145952190D01*
X71711142Y-145999809D01*
X71758761Y-146047428D01*
X71806380Y-146142666D01*
X71806380Y-146237904D01*
X71758761Y-146333142D01*
X71711142Y-146380761D01*
X71615904Y-146428380D01*
X71425428Y-146476000D01*
X71187333Y-146476000D01*
X70996857Y-146428380D01*
X70901619Y-146380761D01*
X70854000Y-146333142D01*
X70806380Y-146237904D01*
X70854000Y-143428380D02*
X70806380Y-143523619D01*
X70806380Y-143666476D01*
X70854000Y-143809333D01*
X70949238Y-143904571D01*
X71044476Y-143952190D01*
X71234952Y-143999809D01*
X71377809Y-143999809D01*
X71568285Y-143952190D01*
X71663523Y-143904571D01*
X71758761Y-143809333D01*
X71806380Y-143666476D01*
X71806380Y-143571238D01*
X71758761Y-143428380D01*
X71711142Y-143380761D01*
X71377809Y-143380761D01*
X71377809Y-143571238D01*
X71806380Y-142952190D02*
X70806380Y-142952190D01*
X71806380Y-142380761D01*
X70806380Y-142380761D01*
X71806380Y-141904571D02*
X70806380Y-141904571D01*
X70806380Y-141666476D01*
X70854000Y-141523619D01*
X70949238Y-141428380D01*
X71044476Y-141380761D01*
X71234952Y-141333142D01*
X71377809Y-141333142D01*
X71568285Y-141380761D01*
X71663523Y-141428380D01*
X71758761Y-141523619D01*
X71806380Y-141666476D01*
X71806380Y-141904571D01*
X72554000Y-148714095D02*
X72506380Y-148809333D01*
X72506380Y-148952190D01*
X72554000Y-149095047D01*
X72649238Y-149190285D01*
X72744476Y-149237904D01*
X72934952Y-149285523D01*
X73077809Y-149285523D01*
X73268285Y-149237904D01*
X73363523Y-149190285D01*
X73458761Y-149095047D01*
X73506380Y-148952190D01*
X73506380Y-148856952D01*
X73458761Y-148714095D01*
X73411142Y-148666476D01*
X73077809Y-148666476D01*
X73077809Y-148856952D01*
X73506380Y-148237904D02*
X72506380Y-148237904D01*
X73506380Y-147666476D01*
X72506380Y-147666476D01*
X73506380Y-147190285D02*
X72506380Y-147190285D01*
X72506380Y-146952190D01*
X72554000Y-146809333D01*
X72649238Y-146714095D01*
X72744476Y-146666476D01*
X72934952Y-146618857D01*
X73077809Y-146618857D01*
X73268285Y-146666476D01*
X73363523Y-146714095D01*
X73458761Y-146809333D01*
X73506380Y-146952190D01*
X73506380Y-147190285D01*
X73506380Y-143904571D02*
X72506380Y-143904571D01*
X73506380Y-143333142D01*
X72506380Y-143333142D01*
X72506380Y-142999809D02*
X72506380Y-142428380D01*
X73506380Y-142714095D02*
X72506380Y-142714095D01*
X73411142Y-141523619D02*
X73458761Y-141571238D01*
X73506380Y-141714095D01*
X73506380Y-141809333D01*
X73458761Y-141952190D01*
X73363523Y-142047428D01*
X73268285Y-142095047D01*
X73077809Y-142142666D01*
X72934952Y-142142666D01*
X72744476Y-142095047D01*
X72649238Y-142047428D01*
X72554000Y-141952190D01*
X72506380Y-141809333D01*
X72506380Y-141714095D01*
X72554000Y-141571238D01*
X72601619Y-141523619D01*
X72839714Y-140666476D02*
X73506380Y-140666476D01*
X72458761Y-140904571D02*
X73173047Y-141142666D01*
X73173047Y-140523619D01*
X75206380Y-149237904D02*
X74206380Y-149237904D01*
X75206380Y-148666476D01*
X74206380Y-148666476D01*
X74206380Y-148333142D02*
X74206380Y-147761714D01*
X75206380Y-148047428D02*
X74206380Y-148047428D01*
X75111142Y-146856952D02*
X75158761Y-146904571D01*
X75206380Y-147047428D01*
X75206380Y-147142666D01*
X75158761Y-147285523D01*
X75063523Y-147380761D01*
X74968285Y-147428380D01*
X74777809Y-147476000D01*
X74634952Y-147476000D01*
X74444476Y-147428380D01*
X74349238Y-147380761D01*
X74254000Y-147285523D01*
X74206380Y-147142666D01*
X74206380Y-147047428D01*
X74254000Y-146904571D01*
X74301619Y-146856952D01*
X75206380Y-145904571D02*
X75206380Y-146476000D01*
X75206380Y-146190285D02*
X74206380Y-146190285D01*
X74349238Y-146285523D01*
X74444476Y-146380761D01*
X74492095Y-146476000D01*
X74254000Y-143428380D02*
X74206380Y-143523619D01*
X74206380Y-143666476D01*
X74254000Y-143809333D01*
X74349238Y-143904571D01*
X74444476Y-143952190D01*
X74634952Y-143999809D01*
X74777809Y-143999809D01*
X74968285Y-143952190D01*
X75063523Y-143904571D01*
X75158761Y-143809333D01*
X75206380Y-143666476D01*
X75206380Y-143571238D01*
X75158761Y-143428380D01*
X75111142Y-143380761D01*
X74777809Y-143380761D01*
X74777809Y-143571238D01*
X75206380Y-142952190D02*
X74206380Y-142952190D01*
X75206380Y-142380761D01*
X74206380Y-142380761D01*
X75206380Y-141904571D02*
X74206380Y-141904571D01*
X74206380Y-141666476D01*
X74254000Y-141523619D01*
X74349238Y-141428380D01*
X74444476Y-141380761D01*
X74634952Y-141333142D01*
X74777809Y-141333142D01*
X74968285Y-141380761D01*
X75063523Y-141428380D01*
X75158761Y-141523619D01*
X75206380Y-141666476D01*
X75206380Y-141904571D01*
X75954000Y-148714095D02*
X75906380Y-148809333D01*
X75906380Y-148952190D01*
X75954000Y-149095047D01*
X76049238Y-149190285D01*
X76144476Y-149237904D01*
X76334952Y-149285523D01*
X76477809Y-149285523D01*
X76668285Y-149237904D01*
X76763523Y-149190285D01*
X76858761Y-149095047D01*
X76906380Y-148952190D01*
X76906380Y-148856952D01*
X76858761Y-148714095D01*
X76811142Y-148666476D01*
X76477809Y-148666476D01*
X76477809Y-148856952D01*
X76906380Y-148237904D02*
X75906380Y-148237904D01*
X76906380Y-147666476D01*
X75906380Y-147666476D01*
X76906380Y-147190285D02*
X75906380Y-147190285D01*
X75906380Y-146952190D01*
X75954000Y-146809333D01*
X76049238Y-146714095D01*
X76144476Y-146666476D01*
X76334952Y-146618857D01*
X76477809Y-146618857D01*
X76668285Y-146666476D01*
X76763523Y-146714095D01*
X76858761Y-146809333D01*
X76906380Y-146952190D01*
X76906380Y-147190285D01*
X76906380Y-143904571D02*
X75906380Y-143904571D01*
X76906380Y-143333142D01*
X75906380Y-143333142D01*
X75906380Y-142999809D02*
X75906380Y-142428380D01*
X76906380Y-142714095D02*
X75906380Y-142714095D01*
X76811142Y-141523619D02*
X76858761Y-141571238D01*
X76906380Y-141714095D01*
X76906380Y-141809333D01*
X76858761Y-141952190D01*
X76763523Y-142047428D01*
X76668285Y-142095047D01*
X76477809Y-142142666D01*
X76334952Y-142142666D01*
X76144476Y-142095047D01*
X76049238Y-142047428D01*
X75954000Y-141952190D01*
X75906380Y-141809333D01*
X75906380Y-141714095D01*
X75954000Y-141571238D01*
X76001619Y-141523619D01*
X75906380Y-140618857D02*
X75906380Y-141095047D01*
X76382571Y-141142666D01*
X76334952Y-141095047D01*
X76287333Y-140999809D01*
X76287333Y-140761714D01*
X76334952Y-140666476D01*
X76382571Y-140618857D01*
X76477809Y-140571238D01*
X76715904Y-140571238D01*
X76811142Y-140618857D01*
X76858761Y-140666476D01*
X76906380Y-140761714D01*
X76906380Y-140999809D01*
X76858761Y-141095047D01*
X76811142Y-141142666D01*
X78606380Y-149237904D02*
X77606380Y-149237904D01*
X78606380Y-148666476D01*
X77606380Y-148666476D01*
X77606380Y-148333142D02*
X77606380Y-147761714D01*
X78606380Y-148047428D02*
X77606380Y-148047428D01*
X78511142Y-146856952D02*
X78558761Y-146904571D01*
X78606380Y-147047428D01*
X78606380Y-147142666D01*
X78558761Y-147285523D01*
X78463523Y-147380761D01*
X78368285Y-147428380D01*
X78177809Y-147476000D01*
X78034952Y-147476000D01*
X77844476Y-147428380D01*
X77749238Y-147380761D01*
X77654000Y-147285523D01*
X77606380Y-147142666D01*
X77606380Y-147047428D01*
X77654000Y-146904571D01*
X77701619Y-146856952D01*
X77701619Y-146476000D02*
X77654000Y-146428380D01*
X77606380Y-146333142D01*
X77606380Y-146095047D01*
X77654000Y-145999809D01*
X77701619Y-145952190D01*
X77796857Y-145904571D01*
X77892095Y-145904571D01*
X78034952Y-145952190D01*
X78606380Y-146523619D01*
X78606380Y-145904571D01*
X77654000Y-143428380D02*
X77606380Y-143523619D01*
X77606380Y-143666476D01*
X77654000Y-143809333D01*
X77749238Y-143904571D01*
X77844476Y-143952190D01*
X78034952Y-143999809D01*
X78177809Y-143999809D01*
X78368285Y-143952190D01*
X78463523Y-143904571D01*
X78558761Y-143809333D01*
X78606380Y-143666476D01*
X78606380Y-143571238D01*
X78558761Y-143428380D01*
X78511142Y-143380761D01*
X78177809Y-143380761D01*
X78177809Y-143571238D01*
X78606380Y-142952190D02*
X77606380Y-142952190D01*
X78606380Y-142380761D01*
X77606380Y-142380761D01*
X78606380Y-141904571D02*
X77606380Y-141904571D01*
X77606380Y-141666476D01*
X77654000Y-141523619D01*
X77749238Y-141428380D01*
X77844476Y-141380761D01*
X78034952Y-141333142D01*
X78177809Y-141333142D01*
X78368285Y-141380761D01*
X78463523Y-141428380D01*
X78558761Y-141523619D01*
X78606380Y-141666476D01*
X78606380Y-141904571D01*
X79354000Y-148714095D02*
X79306380Y-148809333D01*
X79306380Y-148952190D01*
X79354000Y-149095047D01*
X79449238Y-149190285D01*
X79544476Y-149237904D01*
X79734952Y-149285523D01*
X79877809Y-149285523D01*
X80068285Y-149237904D01*
X80163523Y-149190285D01*
X80258761Y-149095047D01*
X80306380Y-148952190D01*
X80306380Y-148856952D01*
X80258761Y-148714095D01*
X80211142Y-148666476D01*
X79877809Y-148666476D01*
X79877809Y-148856952D01*
X80306380Y-148237904D02*
X79306380Y-148237904D01*
X80306380Y-147666476D01*
X79306380Y-147666476D01*
X80306380Y-147190285D02*
X79306380Y-147190285D01*
X79306380Y-146952190D01*
X79354000Y-146809333D01*
X79449238Y-146714095D01*
X79544476Y-146666476D01*
X79734952Y-146618857D01*
X79877809Y-146618857D01*
X80068285Y-146666476D01*
X80163523Y-146714095D01*
X80258761Y-146809333D01*
X80306380Y-146952190D01*
X80306380Y-147190285D01*
X79306380Y-143714095D02*
X79306380Y-143523619D01*
X79354000Y-143428380D01*
X79449238Y-143333142D01*
X79639714Y-143285523D01*
X79973047Y-143285523D01*
X80163523Y-143333142D01*
X80258761Y-143428380D01*
X80306380Y-143523619D01*
X80306380Y-143714095D01*
X80258761Y-143809333D01*
X80163523Y-143904571D01*
X79973047Y-143952190D01*
X79639714Y-143952190D01*
X79449238Y-143904571D01*
X79354000Y-143809333D01*
X79306380Y-143714095D01*
X79306380Y-142952190D02*
X80306380Y-142714095D01*
X79592095Y-142523619D01*
X80306380Y-142333142D01*
X79306380Y-142095047D01*
X80401619Y-141952190D02*
X80401619Y-141190285D01*
X79925428Y-140952190D02*
X79925428Y-140190285D01*
X80306380Y-140571238D02*
X79544476Y-140571238D01*
X82006380Y-149237904D02*
X81006380Y-149237904D01*
X82006380Y-148666476D01*
X81006380Y-148666476D01*
X81006380Y-148333142D02*
X81006380Y-147761714D01*
X82006380Y-148047428D02*
X81006380Y-148047428D01*
X81911142Y-146856952D02*
X81958761Y-146904571D01*
X82006380Y-147047428D01*
X82006380Y-147142666D01*
X81958761Y-147285523D01*
X81863523Y-147380761D01*
X81768285Y-147428380D01*
X81577809Y-147476000D01*
X81434952Y-147476000D01*
X81244476Y-147428380D01*
X81149238Y-147380761D01*
X81054000Y-147285523D01*
X81006380Y-147142666D01*
X81006380Y-147047428D01*
X81054000Y-146904571D01*
X81101619Y-146856952D01*
X81006380Y-146523619D02*
X81006380Y-145904571D01*
X81387333Y-146237904D01*
X81387333Y-146095047D01*
X81434952Y-145999809D01*
X81482571Y-145952190D01*
X81577809Y-145904571D01*
X81815904Y-145904571D01*
X81911142Y-145952190D01*
X81958761Y-145999809D01*
X82006380Y-146095047D01*
X82006380Y-146380761D01*
X81958761Y-146476000D01*
X81911142Y-146523619D01*
X81006380Y-143761714D02*
X81006380Y-143571238D01*
X81054000Y-143476000D01*
X81149238Y-143380761D01*
X81339714Y-143333142D01*
X81673047Y-143333142D01*
X81863523Y-143380761D01*
X81958761Y-143476000D01*
X82006380Y-143571238D01*
X82006380Y-143761714D01*
X81958761Y-143856952D01*
X81863523Y-143952190D01*
X81673047Y-143999809D01*
X81339714Y-143999809D01*
X81149238Y-143952190D01*
X81054000Y-143856952D01*
X81006380Y-143761714D01*
X81006380Y-142999809D02*
X82006380Y-142761714D01*
X81292095Y-142571238D01*
X82006380Y-142380761D01*
X81006380Y-142142666D01*
X82101619Y-141999809D02*
X82101619Y-141237904D01*
X82006380Y-140999809D02*
X81006380Y-140999809D01*
X81006380Y-140761714D01*
X81054000Y-140618857D01*
X81149238Y-140523619D01*
X81244476Y-140476000D01*
X81434952Y-140428380D01*
X81577809Y-140428380D01*
X81768285Y-140476000D01*
X81863523Y-140523619D01*
X81958761Y-140618857D01*
X82006380Y-140761714D01*
X82006380Y-140999809D01*
X82101619Y-139333142D02*
X82054000Y-139428380D01*
X81958761Y-139523619D01*
X81815904Y-139666476D01*
X81768285Y-139761714D01*
X81768285Y-139856952D01*
X82006380Y-139809333D02*
X81958761Y-139904571D01*
X81863523Y-139999809D01*
X81673047Y-140047428D01*
X81339714Y-140047428D01*
X81149238Y-139999809D01*
X81054000Y-139904571D01*
X81006380Y-139809333D01*
X81006380Y-139618857D01*
X81054000Y-139523619D01*
X81149238Y-139428380D01*
X81339714Y-139380761D01*
X81673047Y-139380761D01*
X81863523Y-139428380D01*
X81958761Y-139523619D01*
X82006380Y-139618857D01*
X82006380Y-139809333D01*
X82754000Y-148714095D02*
X82706380Y-148809333D01*
X82706380Y-148952190D01*
X82754000Y-149095047D01*
X82849238Y-149190285D01*
X82944476Y-149237904D01*
X83134952Y-149285523D01*
X83277809Y-149285523D01*
X83468285Y-149237904D01*
X83563523Y-149190285D01*
X83658761Y-149095047D01*
X83706380Y-148952190D01*
X83706380Y-148856952D01*
X83658761Y-148714095D01*
X83611142Y-148666476D01*
X83277809Y-148666476D01*
X83277809Y-148856952D01*
X83706380Y-148237904D02*
X82706380Y-148237904D01*
X83706380Y-147666476D01*
X82706380Y-147666476D01*
X83706380Y-147190285D02*
X82706380Y-147190285D01*
X82706380Y-146952190D01*
X82754000Y-146809333D01*
X82849238Y-146714095D01*
X82944476Y-146666476D01*
X83134952Y-146618857D01*
X83277809Y-146618857D01*
X83468285Y-146666476D01*
X83563523Y-146714095D01*
X83658761Y-146809333D01*
X83706380Y-146952190D01*
X83706380Y-147190285D01*
X82754000Y-143380761D02*
X82706380Y-143476000D01*
X82706380Y-143618857D01*
X82754000Y-143761714D01*
X82849238Y-143856952D01*
X82944476Y-143904571D01*
X83134952Y-143952190D01*
X83277809Y-143952190D01*
X83468285Y-143904571D01*
X83563523Y-143856952D01*
X83658761Y-143761714D01*
X83706380Y-143618857D01*
X83706380Y-143523619D01*
X83658761Y-143380761D01*
X83611142Y-143333142D01*
X83277809Y-143333142D01*
X83277809Y-143523619D01*
X83706380Y-142904571D02*
X82706380Y-142904571D01*
X83706380Y-142333142D01*
X82706380Y-142333142D01*
X83706380Y-141856952D02*
X82706380Y-141856952D01*
X82706380Y-141618857D01*
X82754000Y-141476000D01*
X82849238Y-141380761D01*
X82944476Y-141333142D01*
X83134952Y-141285523D01*
X83277809Y-141285523D01*
X83468285Y-141333142D01*
X83563523Y-141380761D01*
X83658761Y-141476000D01*
X83706380Y-141618857D01*
X83706380Y-141856952D01*
D11*
X86441595Y-142011380D02*
X86441595Y-142820904D01*
X86489214Y-142916142D01*
X86536833Y-142963761D01*
X86632071Y-143011380D01*
X86822547Y-143011380D01*
X86917785Y-142963761D01*
X86965404Y-142916142D01*
X87013023Y-142820904D01*
X87013023Y-142011380D01*
X87489214Y-142344714D02*
X87489214Y-143344714D01*
X87489214Y-142392333D02*
X87584452Y-142344714D01*
X87774928Y-142344714D01*
X87870166Y-142392333D01*
X87917785Y-142439952D01*
X87965404Y-142535190D01*
X87965404Y-142820904D01*
X87917785Y-142916142D01*
X87870166Y-142963761D01*
X87774928Y-143011380D01*
X87584452Y-143011380D01*
X87489214Y-142963761D01*
X89013023Y-142344714D02*
X89393976Y-142344714D01*
X89155880Y-142011380D02*
X89155880Y-142868523D01*
X89203500Y-142963761D01*
X89298738Y-143011380D01*
X89393976Y-143011380D01*
X89870166Y-143011380D02*
X89774928Y-142963761D01*
X89727309Y-142916142D01*
X89679690Y-142820904D01*
X89679690Y-142535190D01*
X89727309Y-142439952D01*
X89774928Y-142392333D01*
X89870166Y-142344714D01*
X90013023Y-142344714D01*
X90108261Y-142392333D01*
X90155880Y-142439952D01*
X90203500Y-142535190D01*
X90203500Y-142820904D01*
X90155880Y-142916142D01*
X90108261Y-142963761D01*
X90013023Y-143011380D01*
X89870166Y-143011380D01*
X91822547Y-142011380D02*
X91632071Y-142011380D01*
X91536833Y-142059000D01*
X91489214Y-142106619D01*
X91393976Y-142249476D01*
X91346357Y-142439952D01*
X91346357Y-142820904D01*
X91393976Y-142916142D01*
X91441595Y-142963761D01*
X91536833Y-143011380D01*
X91727309Y-143011380D01*
X91822547Y-142963761D01*
X91870166Y-142916142D01*
X91917785Y-142820904D01*
X91917785Y-142582809D01*
X91870166Y-142487571D01*
X91822547Y-142439952D01*
X91727309Y-142392333D01*
X91536833Y-142392333D01*
X91441595Y-142439952D01*
X91393976Y-142487571D01*
X91346357Y-142582809D01*
X93536833Y-142963761D02*
X93441595Y-143011380D01*
X93251119Y-143011380D01*
X93155880Y-142963761D01*
X93108261Y-142916142D01*
X93060642Y-142820904D01*
X93060642Y-142535190D01*
X93108261Y-142439952D01*
X93155880Y-142392333D01*
X93251119Y-142344714D01*
X93441595Y-142344714D01*
X93536833Y-142392333D01*
X93965404Y-143011380D02*
X93965404Y-142011380D01*
X94393976Y-143011380D02*
X94393976Y-142487571D01*
X94346357Y-142392333D01*
X94251119Y-142344714D01*
X94108261Y-142344714D01*
X94013023Y-142392333D01*
X93965404Y-142439952D01*
X95298738Y-143011380D02*
X95298738Y-142487571D01*
X95251119Y-142392333D01*
X95155880Y-142344714D01*
X94965404Y-142344714D01*
X94870166Y-142392333D01*
X95298738Y-142963761D02*
X95203500Y-143011380D01*
X94965404Y-143011380D01*
X94870166Y-142963761D01*
X94822547Y-142868523D01*
X94822547Y-142773285D01*
X94870166Y-142678047D01*
X94965404Y-142630428D01*
X95203500Y-142630428D01*
X95298738Y-142582809D01*
X95774928Y-142344714D02*
X95774928Y-143011380D01*
X95774928Y-142439952D02*
X95822547Y-142392333D01*
X95917785Y-142344714D01*
X96060642Y-142344714D01*
X96155880Y-142392333D01*
X96203500Y-142487571D01*
X96203500Y-143011380D01*
X96679690Y-142344714D02*
X96679690Y-143011380D01*
X96679690Y-142439952D02*
X96727309Y-142392333D01*
X96822547Y-142344714D01*
X96965404Y-142344714D01*
X97060642Y-142392333D01*
X97108261Y-142487571D01*
X97108261Y-143011380D01*
X97965404Y-142963761D02*
X97870166Y-143011380D01*
X97679690Y-143011380D01*
X97584452Y-142963761D01*
X97536833Y-142868523D01*
X97536833Y-142487571D01*
X97584452Y-142392333D01*
X97679690Y-142344714D01*
X97870166Y-142344714D01*
X97965404Y-142392333D01*
X98013023Y-142487571D01*
X98013023Y-142582809D01*
X97536833Y-142678047D01*
X98584452Y-143011380D02*
X98489214Y-142963761D01*
X98441595Y-142868523D01*
X98441595Y-142011380D01*
X86441595Y-144661380D02*
X86441595Y-143661380D01*
X87013023Y-144661380D01*
X87013023Y-143661380D01*
X87346357Y-143661380D02*
X87917785Y-143661380D01*
X87632071Y-144661380D02*
X87632071Y-143661380D01*
X88822547Y-144566142D02*
X88774928Y-144613761D01*
X88632071Y-144661380D01*
X88536833Y-144661380D01*
X88393976Y-144613761D01*
X88298738Y-144518523D01*
X88251119Y-144423285D01*
X88203500Y-144232809D01*
X88203500Y-144089952D01*
X88251119Y-143899476D01*
X88298738Y-143804238D01*
X88393976Y-143709000D01*
X88536833Y-143661380D01*
X88632071Y-143661380D01*
X88774928Y-143709000D01*
X88822547Y-143756619D01*
X90727309Y-143613761D02*
X89870166Y-144899476D01*
X91822547Y-144661380D02*
X91822547Y-143661380D01*
X92060642Y-143661380D01*
X92203500Y-143709000D01*
X92298738Y-143804238D01*
X92346357Y-143899476D01*
X92393976Y-144089952D01*
X92393976Y-144232809D01*
X92346357Y-144423285D01*
X92298738Y-144518523D01*
X92203500Y-144613761D01*
X92060642Y-144661380D01*
X91822547Y-144661380D01*
X92774928Y-144613761D02*
X92917785Y-144661380D01*
X93155880Y-144661380D01*
X93251119Y-144613761D01*
X93298738Y-144566142D01*
X93346357Y-144470904D01*
X93346357Y-144375666D01*
X93298738Y-144280428D01*
X93251119Y-144232809D01*
X93155880Y-144185190D01*
X92965404Y-144137571D01*
X92870166Y-144089952D01*
X92822547Y-144042333D01*
X92774928Y-143947095D01*
X92774928Y-143851857D01*
X92822547Y-143756619D01*
X92870166Y-143709000D01*
X92965404Y-143661380D01*
X93203500Y-143661380D01*
X93346357Y-143709000D01*
X94298738Y-144661380D02*
X93727309Y-144661380D01*
X94013023Y-144661380D02*
X94013023Y-143661380D01*
X93917785Y-143804238D01*
X93822547Y-143899476D01*
X93727309Y-143947095D01*
X94870166Y-144089952D02*
X94774928Y-144042333D01*
X94727309Y-143994714D01*
X94679690Y-143899476D01*
X94679690Y-143851857D01*
X94727309Y-143756619D01*
X94774928Y-143709000D01*
X94870166Y-143661380D01*
X95060642Y-143661380D01*
X95155880Y-143709000D01*
X95203500Y-143756619D01*
X95251119Y-143851857D01*
X95251119Y-143899476D01*
X95203500Y-143994714D01*
X95155880Y-144042333D01*
X95060642Y-144089952D01*
X94870166Y-144089952D01*
X94774928Y-144137571D01*
X94727309Y-144185190D01*
X94679690Y-144280428D01*
X94679690Y-144470904D01*
X94727309Y-144566142D01*
X94774928Y-144613761D01*
X94870166Y-144661380D01*
X95060642Y-144661380D01*
X95155880Y-144613761D01*
X95203500Y-144566142D01*
X95251119Y-144470904D01*
X95251119Y-144280428D01*
X95203500Y-144185190D01*
X95155880Y-144137571D01*
X95060642Y-144089952D01*
X96013023Y-144137571D02*
X96155880Y-144185190D01*
X96203500Y-144232809D01*
X96251119Y-144328047D01*
X96251119Y-144470904D01*
X96203500Y-144566142D01*
X96155880Y-144613761D01*
X96060642Y-144661380D01*
X95679690Y-144661380D01*
X95679690Y-143661380D01*
X96013023Y-143661380D01*
X96108261Y-143709000D01*
X96155880Y-143756619D01*
X96203500Y-143851857D01*
X96203500Y-143947095D01*
X96155880Y-144042333D01*
X96108261Y-144089952D01*
X96013023Y-144137571D01*
X95679690Y-144137571D01*
X96632071Y-143756619D02*
X96679690Y-143709000D01*
X96774928Y-143661380D01*
X97013023Y-143661380D01*
X97108261Y-143709000D01*
X97155880Y-143756619D01*
X97203500Y-143851857D01*
X97203500Y-143947095D01*
X97155880Y-144089952D01*
X96584452Y-144661380D01*
X97203500Y-144661380D01*
X97822547Y-143661380D02*
X97917785Y-143661380D01*
X98013023Y-143709000D01*
X98060642Y-143756619D01*
X98108261Y-143851857D01*
X98155880Y-144042333D01*
X98155880Y-144280428D01*
X98108261Y-144470904D01*
X98060642Y-144566142D01*
X98013023Y-144613761D01*
X97917785Y-144661380D01*
X97822547Y-144661380D01*
X97727309Y-144613761D01*
X97679690Y-144566142D01*
X97632071Y-144470904D01*
X97584452Y-144280428D01*
X97584452Y-144042333D01*
X97632071Y-143851857D01*
X97679690Y-143756619D01*
X97727309Y-143709000D01*
X97822547Y-143661380D01*
X86298738Y-145644714D02*
X86679690Y-145644714D01*
X86441595Y-145311380D02*
X86441595Y-146168523D01*
X86489214Y-146263761D01*
X86584452Y-146311380D01*
X86679690Y-146311380D01*
X87393976Y-146263761D02*
X87298738Y-146311380D01*
X87108261Y-146311380D01*
X87013023Y-146263761D01*
X86965404Y-146168523D01*
X86965404Y-145787571D01*
X87013023Y-145692333D01*
X87108261Y-145644714D01*
X87298738Y-145644714D01*
X87393976Y-145692333D01*
X87441595Y-145787571D01*
X87441595Y-145882809D01*
X86965404Y-145978047D01*
X87870166Y-146311380D02*
X87870166Y-145644714D01*
X87870166Y-145739952D02*
X87917785Y-145692333D01*
X88013023Y-145644714D01*
X88155880Y-145644714D01*
X88251119Y-145692333D01*
X88298738Y-145787571D01*
X88298738Y-146311380D01*
X88298738Y-145787571D02*
X88346357Y-145692333D01*
X88441595Y-145644714D01*
X88584452Y-145644714D01*
X88679690Y-145692333D01*
X88727309Y-145787571D01*
X88727309Y-146311380D01*
X89203500Y-145644714D02*
X89203500Y-146644714D01*
X89203500Y-145692333D02*
X89298738Y-145644714D01*
X89489214Y-145644714D01*
X89584452Y-145692333D01*
X89632071Y-145739952D01*
X89679690Y-145835190D01*
X89679690Y-146120904D01*
X89632071Y-146216142D01*
X89584452Y-146263761D01*
X89489214Y-146311380D01*
X89298738Y-146311380D01*
X89203500Y-146263761D01*
X90489214Y-146263761D02*
X90393976Y-146311380D01*
X90203500Y-146311380D01*
X90108261Y-146263761D01*
X90060642Y-146168523D01*
X90060642Y-145787571D01*
X90108261Y-145692333D01*
X90203500Y-145644714D01*
X90393976Y-145644714D01*
X90489214Y-145692333D01*
X90536833Y-145787571D01*
X90536833Y-145882809D01*
X90060642Y-145978047D01*
X90965404Y-146311380D02*
X90965404Y-145644714D01*
X90965404Y-145835190D02*
X91013023Y-145739952D01*
X91060642Y-145692333D01*
X91155880Y-145644714D01*
X91251119Y-145644714D01*
X92013023Y-146311380D02*
X92013023Y-145787571D01*
X91965404Y-145692333D01*
X91870166Y-145644714D01*
X91679690Y-145644714D01*
X91584452Y-145692333D01*
X92013023Y-146263761D02*
X91917785Y-146311380D01*
X91679690Y-146311380D01*
X91584452Y-146263761D01*
X91536833Y-146168523D01*
X91536833Y-146073285D01*
X91584452Y-145978047D01*
X91679690Y-145930428D01*
X91917785Y-145930428D01*
X92013023Y-145882809D01*
X92346357Y-145644714D02*
X92727309Y-145644714D01*
X92489214Y-145311380D02*
X92489214Y-146168523D01*
X92536833Y-146263761D01*
X92632071Y-146311380D01*
X92727309Y-146311380D01*
X93489214Y-145644714D02*
X93489214Y-146311380D01*
X93060642Y-145644714D02*
X93060642Y-146168523D01*
X93108261Y-146263761D01*
X93203500Y-146311380D01*
X93346357Y-146311380D01*
X93441595Y-146263761D01*
X93489214Y-146216142D01*
X93965404Y-146311380D02*
X93965404Y-145644714D01*
X93965404Y-145835190D02*
X94013023Y-145739952D01*
X94060642Y-145692333D01*
X94155880Y-145644714D01*
X94251119Y-145644714D01*
X94965404Y-146263761D02*
X94870166Y-146311380D01*
X94679690Y-146311380D01*
X94584452Y-146263761D01*
X94536833Y-146168523D01*
X94536833Y-145787571D01*
X94584452Y-145692333D01*
X94679690Y-145644714D01*
X94870166Y-145644714D01*
X94965404Y-145692333D01*
X95013023Y-145787571D01*
X95013023Y-145882809D01*
X94536833Y-145978047D01*
X96203500Y-145644714D02*
X96203500Y-146644714D01*
X96203500Y-145692333D02*
X96298738Y-145644714D01*
X96489214Y-145644714D01*
X96584452Y-145692333D01*
X96632071Y-145739952D01*
X96679690Y-145835190D01*
X96679690Y-146120904D01*
X96632071Y-146216142D01*
X96584452Y-146263761D01*
X96489214Y-146311380D01*
X96298738Y-146311380D01*
X96203500Y-146263761D01*
X97251119Y-146311380D02*
X97155880Y-146263761D01*
X97108261Y-146168523D01*
X97108261Y-145311380D01*
X97774928Y-146311380D02*
X97679690Y-146263761D01*
X97632071Y-146216142D01*
X97584452Y-146120904D01*
X97584452Y-145835190D01*
X97632071Y-145739952D01*
X97679690Y-145692333D01*
X97774928Y-145644714D01*
X97917785Y-145644714D01*
X98013023Y-145692333D01*
X98060642Y-145739952D01*
X98108261Y-145835190D01*
X98108261Y-146120904D01*
X98060642Y-146216142D01*
X98013023Y-146263761D01*
X97917785Y-146311380D01*
X97774928Y-146311380D01*
X98393976Y-145644714D02*
X98774928Y-145644714D01*
X98536833Y-145311380D02*
X98536833Y-146168523D01*
X98584452Y-146263761D01*
X98679690Y-146311380D01*
X98774928Y-146311380D01*
X98965404Y-145644714D02*
X99346357Y-145644714D01*
X99108261Y-145311380D02*
X99108261Y-146168523D01*
X99155880Y-146263761D01*
X99251119Y-146311380D01*
X99346357Y-146311380D01*
X100060642Y-146263761D02*
X99965404Y-146311380D01*
X99774928Y-146311380D01*
X99679690Y-146263761D01*
X99632071Y-146168523D01*
X99632071Y-145787571D01*
X99679690Y-145692333D01*
X99774928Y-145644714D01*
X99965404Y-145644714D01*
X100060642Y-145692333D01*
X100108261Y-145787571D01*
X100108261Y-145882809D01*
X99632071Y-145978047D01*
X100536833Y-146311380D02*
X100536833Y-145644714D01*
X100536833Y-145835190D02*
X100584452Y-145739952D01*
X100632071Y-145692333D01*
X100727309Y-145644714D01*
X100822547Y-145644714D01*
X86346357Y-147294714D02*
X86536833Y-147961380D01*
X86727309Y-147485190D01*
X86917785Y-147961380D01*
X87108261Y-147294714D01*
X87393976Y-147294714D02*
X87584452Y-147961380D01*
X87774928Y-147485190D01*
X87965404Y-147961380D01*
X88155880Y-147294714D01*
X88441595Y-147294714D02*
X88632071Y-147961380D01*
X88822547Y-147485190D01*
X89013023Y-147961380D01*
X89203500Y-147294714D01*
X89584452Y-147866142D02*
X89632071Y-147913761D01*
X89584452Y-147961380D01*
X89536833Y-147913761D01*
X89584452Y-147866142D01*
X89584452Y-147961380D01*
X90203500Y-147961380D02*
X90108261Y-147913761D01*
X90060642Y-147866142D01*
X90013023Y-147770904D01*
X90013023Y-147485190D01*
X90060642Y-147389952D01*
X90108261Y-147342333D01*
X90203500Y-147294714D01*
X90346357Y-147294714D01*
X90441595Y-147342333D01*
X90489214Y-147389952D01*
X90536833Y-147485190D01*
X90536833Y-147770904D01*
X90489214Y-147866142D01*
X90441595Y-147913761D01*
X90346357Y-147961380D01*
X90203500Y-147961380D01*
X90965404Y-147294714D02*
X90965404Y-148294714D01*
X90965404Y-147342333D02*
X91060642Y-147294714D01*
X91251119Y-147294714D01*
X91346357Y-147342333D01*
X91393976Y-147389952D01*
X91441595Y-147485190D01*
X91441595Y-147770904D01*
X91393976Y-147866142D01*
X91346357Y-147913761D01*
X91251119Y-147961380D01*
X91060642Y-147961380D01*
X90965404Y-147913761D01*
X91727309Y-147294714D02*
X92108261Y-147294714D01*
X91870166Y-146961380D02*
X91870166Y-147818523D01*
X91917785Y-147913761D01*
X92013023Y-147961380D01*
X92108261Y-147961380D01*
X92441595Y-147961380D02*
X92441595Y-147294714D01*
X92441595Y-146961380D02*
X92393976Y-147009000D01*
X92441595Y-147056619D01*
X92489214Y-147009000D01*
X92441595Y-146961380D01*
X92441595Y-147056619D01*
X92870166Y-147913761D02*
X92965404Y-147961380D01*
X93155880Y-147961380D01*
X93251119Y-147913761D01*
X93298738Y-147818523D01*
X93298738Y-147770904D01*
X93251119Y-147675666D01*
X93155880Y-147628047D01*
X93013023Y-147628047D01*
X92917785Y-147580428D01*
X92870166Y-147485190D01*
X92870166Y-147437571D01*
X92917785Y-147342333D01*
X93013023Y-147294714D01*
X93155880Y-147294714D01*
X93251119Y-147342333D01*
X93727309Y-147961380D02*
X93727309Y-147294714D01*
X93727309Y-146961380D02*
X93679690Y-147009000D01*
X93727309Y-147056619D01*
X93774928Y-147009000D01*
X93727309Y-146961380D01*
X93727309Y-147056619D01*
X94203500Y-147961380D02*
X94203500Y-147294714D01*
X94203500Y-147389952D02*
X94251119Y-147342333D01*
X94346357Y-147294714D01*
X94489214Y-147294714D01*
X94584452Y-147342333D01*
X94632071Y-147437571D01*
X94632071Y-147961380D01*
X94632071Y-147437571D02*
X94679690Y-147342333D01*
X94774928Y-147294714D01*
X94917785Y-147294714D01*
X95013023Y-147342333D01*
X95060642Y-147437571D01*
X95060642Y-147961380D01*
X95679690Y-147961380D02*
X95584452Y-147913761D01*
X95536833Y-147866142D01*
X95489214Y-147770904D01*
X95489214Y-147485190D01*
X95536833Y-147389952D01*
X95584452Y-147342333D01*
X95679690Y-147294714D01*
X95822547Y-147294714D01*
X95917785Y-147342333D01*
X95965404Y-147389952D01*
X96013023Y-147485190D01*
X96013023Y-147770904D01*
X95965404Y-147866142D01*
X95917785Y-147913761D01*
X95822547Y-147961380D01*
X95679690Y-147961380D01*
X96441595Y-147294714D02*
X96441595Y-147961380D01*
X96441595Y-147389952D02*
X96489214Y-147342333D01*
X96584452Y-147294714D01*
X96727309Y-147294714D01*
X96822547Y-147342333D01*
X96870166Y-147437571D01*
X96870166Y-147961380D01*
X97346357Y-147866142D02*
X97393976Y-147913761D01*
X97346357Y-147961380D01*
X97298738Y-147913761D01*
X97346357Y-147866142D01*
X97346357Y-147961380D01*
X98251119Y-147913761D02*
X98155880Y-147961380D01*
X97965404Y-147961380D01*
X97870166Y-147913761D01*
X97822547Y-147866142D01*
X97774928Y-147770904D01*
X97774928Y-147485190D01*
X97822547Y-147389952D01*
X97870166Y-147342333D01*
X97965404Y-147294714D01*
X98155880Y-147294714D01*
X98251119Y-147342333D01*
X98822547Y-147961380D02*
X98727309Y-147913761D01*
X98679690Y-147866142D01*
X98632071Y-147770904D01*
X98632071Y-147485190D01*
X98679690Y-147389952D01*
X98727309Y-147342333D01*
X98822547Y-147294714D01*
X98965404Y-147294714D01*
X99060642Y-147342333D01*
X99108261Y-147389952D01*
X99155880Y-147485190D01*
X99155880Y-147770904D01*
X99108261Y-147866142D01*
X99060642Y-147913761D01*
X98965404Y-147961380D01*
X98822547Y-147961380D01*
X99584452Y-147961380D02*
X99584452Y-147294714D01*
X99584452Y-147389952D02*
X99632071Y-147342333D01*
X99727309Y-147294714D01*
X99870166Y-147294714D01*
X99965404Y-147342333D01*
X100013023Y-147437571D01*
X100013023Y-147961380D01*
X100013023Y-147437571D02*
X100060642Y-147342333D01*
X100155880Y-147294714D01*
X100298738Y-147294714D01*
X100393976Y-147342333D01*
X100441595Y-147437571D01*
X100441595Y-147961380D01*
D10*
X66234000Y-111954000D02*
X67564000Y-111954000D01*
X66234000Y-113284000D02*
X66234000Y-111954000D01*
X66234000Y-114554000D02*
X68894000Y-114554000D01*
X68894000Y-114554000D02*
X68894000Y-122234000D01*
X66234000Y-114554000D02*
X66234000Y-122234000D01*
X66234000Y-122234000D02*
X68894000Y-122234000D01*
X66605564Y-124116000D02*
X65401436Y-124116000D01*
X66605564Y-126836000D02*
X65401436Y-126836000D01*
D12*
X74054000Y-97861000D02*
X71054000Y-97861000D01*
X74054000Y-102291000D02*
X71054000Y-102291000D01*
D10*
X65787748Y-99262000D02*
X66310252Y-99262000D01*
X65787748Y-97842000D02*
X66310252Y-97842000D01*
X84022000Y-124204252D02*
X84022000Y-123681748D01*
X82602000Y-124204252D02*
X82602000Y-123681748D01*
X60199748Y-99262000D02*
X60722252Y-99262000D01*
X60199748Y-97842000D02*
X60722252Y-97842000D01*
X55754748Y-136727000D02*
X56277252Y-136727000D01*
X55754748Y-135307000D02*
X56277252Y-135307000D01*
X82811252Y-118670000D02*
X82288748Y-118670000D01*
X82811252Y-120090000D02*
X82288748Y-120090000D01*
X55754748Y-133552000D02*
X56277252Y-133552000D01*
X55754748Y-132132000D02*
X56277252Y-132132000D01*
X71684000Y-105920000D02*
X71684000Y-107380000D01*
X68524000Y-105920000D02*
X68524000Y-109080000D01*
X68524000Y-105920000D02*
X69454000Y-105920000D01*
X71684000Y-105920000D02*
X70754000Y-105920000D01*
X66538000Y-105944000D02*
X66538000Y-107404000D01*
X63378000Y-105944000D02*
X63378000Y-109104000D01*
X63378000Y-105944000D02*
X64308000Y-105944000D01*
X66538000Y-105944000D02*
X65608000Y-105944000D01*
X64460000Y-153160000D02*
X64460000Y-151700000D01*
X67620000Y-153160000D02*
X67620000Y-150000000D01*
X67620000Y-153160000D02*
X66690000Y-153160000D01*
X64460000Y-153160000D02*
X65390000Y-153160000D01*
X84780000Y-153160000D02*
X84780000Y-151700000D01*
X87940000Y-153160000D02*
X87940000Y-150000000D01*
X87940000Y-153160000D02*
X87010000Y-153160000D01*
X84780000Y-153160000D02*
X85710000Y-153160000D01*
X55754748Y-139902000D02*
X56277252Y-139902000D01*
X55754748Y-138482000D02*
X56277252Y-138482000D01*
X55754748Y-143077000D02*
X56277252Y-143077000D01*
X55754748Y-141657000D02*
X56277252Y-141657000D01*
X55754748Y-146252000D02*
X56277252Y-146252000D01*
X55754748Y-144832000D02*
X56277252Y-144832000D01*
X55754748Y-149427000D02*
X56277252Y-149427000D01*
X55754748Y-148007000D02*
X56277252Y-148007000D01*
X65270748Y-130504000D02*
X65793252Y-130504000D01*
X65270748Y-129084000D02*
X65793252Y-129084000D01*
X92708252Y-153722000D02*
X92185748Y-153722000D01*
X92708252Y-155142000D02*
X92185748Y-155142000D01*
X80011748Y-155142000D02*
X80534252Y-155142000D01*
X80011748Y-153722000D02*
X80534252Y-153722000D01*
X72388252Y-153722000D02*
X71865748Y-153722000D01*
X72388252Y-155142000D02*
X71865748Y-155142000D01*
X59682748Y-155142000D02*
X60205252Y-155142000D01*
X59682748Y-153722000D02*
X60205252Y-153722000D01*
X65279748Y-133806000D02*
X65802252Y-133806000D01*
X65279748Y-132386000D02*
X65802252Y-132386000D01*
X51986000Y-127184000D02*
X55146000Y-127184000D01*
X58646000Y-127184000D02*
X61806000Y-127184000D01*
X58646000Y-104464000D02*
X61806000Y-104464000D01*
X61806000Y-104464000D02*
X61806000Y-127184000D01*
X51986000Y-104464000D02*
X51986000Y-127184000D01*
X51986000Y-104464000D02*
X55146000Y-104464000D01*
X75970000Y-137880000D02*
X99290000Y-137880000D01*
X73430000Y-130980000D02*
X73430000Y-105550000D01*
X99290000Y-137880000D02*
X99290000Y-105550000D01*
X97170000Y-103420000D02*
X75560000Y-103420000D01*
D11*
G36*
X72390000Y-111125000D02*
G01*
X72390000Y-112395000D01*
X73025000Y-111760000D01*
X72390000Y-111125000D01*
G37*
X72390000Y-111125000D02*
X72390000Y-112395000D01*
X73025000Y-111760000D01*
X72390000Y-111125000D01*
D10*
X73430000Y-130980000D02*
X75970000Y-130980000D01*
X75970000Y-130980000D02*
X75970000Y-137880000D01*
X73430000Y-105550000D02*
G75*
G02X75560000Y-103420000I2130000J0D01*
G01*
X97160000Y-103420000D02*
G75*
G02X99290000Y-105550000I0J-2130000D01*
G01*
X63246000Y-145722000D02*
X65631000Y-145722000D01*
X65631000Y-145722000D02*
X65631000Y-145442000D01*
X63246000Y-145722000D02*
X60861000Y-145722000D01*
X60861000Y-145722000D02*
X60861000Y-145442000D01*
X63246000Y-135202000D02*
X65631000Y-135202000D01*
X65631000Y-135202000D02*
X65631000Y-135482000D01*
X63246000Y-135202000D02*
X60861000Y-135202000D01*
X60861000Y-135202000D02*
X60861000Y-135482000D01*
X60861000Y-135482000D02*
X59196000Y-135482000D01*
X100170000Y-96344000D02*
X100170000Y-84124000D01*
X100170000Y-84124000D02*
X52230000Y-84124000D01*
X52230000Y-84124000D02*
X52230000Y-96344000D01*
X52230000Y-96344000D02*
X100170000Y-96344000D01*
X100170000Y-85624000D02*
X100170000Y-87424000D01*
X100170000Y-87424000D02*
X52230000Y-87424000D01*
X52230000Y-87424000D02*
X52230000Y-85624000D01*
X52230000Y-85624000D02*
X100170000Y-85624000D01*
X97520000Y-84124000D02*
X95520000Y-84124000D01*
X95520000Y-84124000D02*
X95770000Y-85624000D01*
X95770000Y-85624000D02*
X97270000Y-85624000D01*
X97270000Y-85624000D02*
X97520000Y-84124000D01*
X92440000Y-84124000D02*
X90440000Y-84124000D01*
X90440000Y-84124000D02*
X90690000Y-85624000D01*
X90690000Y-85624000D02*
X92190000Y-85624000D01*
X92190000Y-85624000D02*
X92440000Y-84124000D01*
X87360000Y-84124000D02*
X85360000Y-84124000D01*
X85360000Y-84124000D02*
X85610000Y-85624000D01*
X85610000Y-85624000D02*
X87110000Y-85624000D01*
X87110000Y-85624000D02*
X87360000Y-84124000D01*
X82280000Y-84124000D02*
X80280000Y-84124000D01*
X80280000Y-84124000D02*
X80530000Y-85624000D01*
X80530000Y-85624000D02*
X82030000Y-85624000D01*
X82030000Y-85624000D02*
X82280000Y-84124000D01*
X77200000Y-84124000D02*
X75200000Y-84124000D01*
X75200000Y-84124000D02*
X75450000Y-85624000D01*
X75450000Y-85624000D02*
X76950000Y-85624000D01*
X76950000Y-85624000D02*
X77200000Y-84124000D01*
X72120000Y-84124000D02*
X70120000Y-84124000D01*
X70120000Y-84124000D02*
X70370000Y-85624000D01*
X70370000Y-85624000D02*
X71870000Y-85624000D01*
X71870000Y-85624000D02*
X72120000Y-84124000D01*
X67040000Y-84124000D02*
X65040000Y-84124000D01*
X65040000Y-84124000D02*
X65290000Y-85624000D01*
X65290000Y-85624000D02*
X66790000Y-85624000D01*
X66790000Y-85624000D02*
X67040000Y-84124000D01*
X61960000Y-84124000D02*
X59960000Y-84124000D01*
X59960000Y-84124000D02*
X60210000Y-85624000D01*
X60210000Y-85624000D02*
X61710000Y-85624000D01*
X61710000Y-85624000D02*
X61960000Y-84124000D01*
X56880000Y-84124000D02*
X54880000Y-84124000D01*
X54880000Y-84124000D02*
X55130000Y-85624000D01*
X55130000Y-85624000D02*
X56630000Y-85624000D01*
X56630000Y-85624000D02*
X56880000Y-84124000D01*
X96220000Y-97144000D02*
X96520000Y-96544000D01*
X96520000Y-96544000D02*
X96820000Y-97144000D01*
X96820000Y-97144000D02*
X96220000Y-97144000D01*
X55580000Y-156856000D02*
X56180000Y-156856000D01*
X55880000Y-157456000D02*
X55580000Y-156856000D01*
X56180000Y-156856000D02*
X55880000Y-157456000D01*
X95770000Y-168376000D02*
X95520000Y-169876000D01*
X97270000Y-168376000D02*
X95770000Y-168376000D01*
X97520000Y-169876000D02*
X97270000Y-168376000D01*
X95520000Y-169876000D02*
X97520000Y-169876000D01*
X90690000Y-168376000D02*
X90440000Y-169876000D01*
X92190000Y-168376000D02*
X90690000Y-168376000D01*
X92440000Y-169876000D02*
X92190000Y-168376000D01*
X90440000Y-169876000D02*
X92440000Y-169876000D01*
X85610000Y-168376000D02*
X85360000Y-169876000D01*
X87110000Y-168376000D02*
X85610000Y-168376000D01*
X87360000Y-169876000D02*
X87110000Y-168376000D01*
X85360000Y-169876000D02*
X87360000Y-169876000D01*
X80530000Y-168376000D02*
X80280000Y-169876000D01*
X82030000Y-168376000D02*
X80530000Y-168376000D01*
X82280000Y-169876000D02*
X82030000Y-168376000D01*
X80280000Y-169876000D02*
X82280000Y-169876000D01*
X75450000Y-168376000D02*
X75200000Y-169876000D01*
X76950000Y-168376000D02*
X75450000Y-168376000D01*
X77200000Y-169876000D02*
X76950000Y-168376000D01*
X75200000Y-169876000D02*
X77200000Y-169876000D01*
X70370000Y-168376000D02*
X70120000Y-169876000D01*
X71870000Y-168376000D02*
X70370000Y-168376000D01*
X72120000Y-169876000D02*
X71870000Y-168376000D01*
X70120000Y-169876000D02*
X72120000Y-169876000D01*
X65290000Y-168376000D02*
X65040000Y-169876000D01*
X66790000Y-168376000D02*
X65290000Y-168376000D01*
X67040000Y-169876000D02*
X66790000Y-168376000D01*
X65040000Y-169876000D02*
X67040000Y-169876000D01*
X60210000Y-168376000D02*
X59960000Y-169876000D01*
X61710000Y-168376000D02*
X60210000Y-168376000D01*
X61960000Y-169876000D02*
X61710000Y-168376000D01*
X59960000Y-169876000D02*
X61960000Y-169876000D01*
X55130000Y-168376000D02*
X54880000Y-169876000D01*
X56630000Y-168376000D02*
X55130000Y-168376000D01*
X56880000Y-169876000D02*
X56630000Y-168376000D01*
X54880000Y-169876000D02*
X56880000Y-169876000D01*
X100170000Y-168376000D02*
X52230000Y-168376000D01*
X100170000Y-166576000D02*
X100170000Y-168376000D01*
X52230000Y-166576000D02*
X100170000Y-166576000D01*
X52230000Y-168376000D02*
X52230000Y-166576000D01*
X100170000Y-157656000D02*
X52230000Y-157656000D01*
X100170000Y-169876000D02*
X100170000Y-157656000D01*
X52230000Y-169876000D02*
X100170000Y-169876000D01*
X52230000Y-157656000D02*
X52230000Y-169876000D01*
D11*
X64476380Y-116919333D02*
X65190666Y-116919333D01*
X65333523Y-116966952D01*
X65428761Y-117062190D01*
X65476380Y-117205047D01*
X65476380Y-117300285D01*
X64476380Y-116538380D02*
X64476380Y-115919333D01*
X64857333Y-116252666D01*
X64857333Y-116109809D01*
X64904952Y-116014571D01*
X64952571Y-115966952D01*
X65047809Y-115919333D01*
X65285904Y-115919333D01*
X65381142Y-115966952D01*
X65428761Y-116014571D01*
X65476380Y-116109809D01*
X65476380Y-116395523D01*
X65428761Y-116490761D01*
X65381142Y-116538380D01*
X63444380Y-125642666D02*
X62968190Y-125976000D01*
X63444380Y-126214095D02*
X62444380Y-126214095D01*
X62444380Y-125833142D01*
X62492000Y-125737904D01*
X62539619Y-125690285D01*
X62634857Y-125642666D01*
X62777714Y-125642666D01*
X62872952Y-125690285D01*
X62920571Y-125737904D01*
X62968190Y-125833142D01*
X62968190Y-126214095D01*
X62444380Y-125309333D02*
X62444380Y-124690285D01*
X62825333Y-125023619D01*
X62825333Y-124880761D01*
X62872952Y-124785523D01*
X62920571Y-124737904D01*
X63015809Y-124690285D01*
X63253904Y-124690285D01*
X63349142Y-124737904D01*
X63396761Y-124785523D01*
X63444380Y-124880761D01*
X63444380Y-125166476D01*
X63396761Y-125261714D01*
X63349142Y-125309333D01*
X72220666Y-103404571D02*
X71887333Y-103404571D01*
X71887333Y-103928380D02*
X71887333Y-102928380D01*
X72363523Y-102928380D01*
X72696857Y-103023619D02*
X72744476Y-102976000D01*
X72839714Y-102928380D01*
X73077809Y-102928380D01*
X73173047Y-102976000D01*
X73220666Y-103023619D01*
X73268285Y-103118857D01*
X73268285Y-103214095D01*
X73220666Y-103356952D01*
X72649238Y-103928380D01*
X73268285Y-103928380D01*
X65873333Y-100941142D02*
X65825714Y-100988761D01*
X65682857Y-101036380D01*
X65587619Y-101036380D01*
X65444761Y-100988761D01*
X65349523Y-100893523D01*
X65301904Y-100798285D01*
X65254285Y-100607809D01*
X65254285Y-100464952D01*
X65301904Y-100274476D01*
X65349523Y-100179238D01*
X65444761Y-100084000D01*
X65587619Y-100036380D01*
X65682857Y-100036380D01*
X65825714Y-100084000D01*
X65873333Y-100131619D01*
X66206666Y-100036380D02*
X66873333Y-100036380D01*
X66444761Y-101036380D01*
X82114380Y-124109666D02*
X81638190Y-124443000D01*
X82114380Y-124681095D02*
X81114380Y-124681095D01*
X81114380Y-124300142D01*
X81162000Y-124204904D01*
X81209619Y-124157285D01*
X81304857Y-124109666D01*
X81447714Y-124109666D01*
X81542952Y-124157285D01*
X81590571Y-124204904D01*
X81638190Y-124300142D01*
X81638190Y-124681095D01*
X81209619Y-123728714D02*
X81162000Y-123681095D01*
X81114380Y-123585857D01*
X81114380Y-123347761D01*
X81162000Y-123252523D01*
X81209619Y-123204904D01*
X81304857Y-123157285D01*
X81400095Y-123157285D01*
X81542952Y-123204904D01*
X82114380Y-123776333D01*
X82114380Y-123157285D01*
X60285333Y-100941142D02*
X60237714Y-100988761D01*
X60094857Y-101036380D01*
X59999619Y-101036380D01*
X59856761Y-100988761D01*
X59761523Y-100893523D01*
X59713904Y-100798285D01*
X59666285Y-100607809D01*
X59666285Y-100464952D01*
X59713904Y-100274476D01*
X59761523Y-100179238D01*
X59856761Y-100084000D01*
X59999619Y-100036380D01*
X60094857Y-100036380D01*
X60237714Y-100084000D01*
X60285333Y-100131619D01*
X61142476Y-100036380D02*
X60952000Y-100036380D01*
X60856761Y-100084000D01*
X60809142Y-100131619D01*
X60713904Y-100274476D01*
X60666285Y-100464952D01*
X60666285Y-100845904D01*
X60713904Y-100941142D01*
X60761523Y-100988761D01*
X60856761Y-101036380D01*
X61047238Y-101036380D01*
X61142476Y-100988761D01*
X61190095Y-100941142D01*
X61237714Y-100845904D01*
X61237714Y-100607809D01*
X61190095Y-100512571D01*
X61142476Y-100464952D01*
X61047238Y-100417333D01*
X60856761Y-100417333D01*
X60761523Y-100464952D01*
X60713904Y-100512571D01*
X60666285Y-100607809D01*
X53538380Y-136183666D02*
X53062190Y-136517000D01*
X53538380Y-136755095D02*
X52538380Y-136755095D01*
X52538380Y-136374142D01*
X52586000Y-136278904D01*
X52633619Y-136231285D01*
X52728857Y-136183666D01*
X52871714Y-136183666D01*
X52966952Y-136231285D01*
X53014571Y-136278904D01*
X53062190Y-136374142D01*
X53062190Y-136755095D01*
X53538380Y-135707476D02*
X53538380Y-135517000D01*
X53490761Y-135421761D01*
X53443142Y-135374142D01*
X53300285Y-135278904D01*
X53109809Y-135231285D01*
X52728857Y-135231285D01*
X52633619Y-135278904D01*
X52586000Y-135326523D01*
X52538380Y-135421761D01*
X52538380Y-135612238D01*
X52586000Y-135707476D01*
X52633619Y-135755095D01*
X52728857Y-135802714D01*
X52966952Y-135802714D01*
X53062190Y-135755095D01*
X53109809Y-135707476D01*
X53157428Y-135612238D01*
X53157428Y-135421761D01*
X53109809Y-135326523D01*
X53062190Y-135278904D01*
X52966952Y-135231285D01*
X80208380Y-119546666D02*
X79732190Y-119880000D01*
X80208380Y-120118095D02*
X79208380Y-120118095D01*
X79208380Y-119737142D01*
X79256000Y-119641904D01*
X79303619Y-119594285D01*
X79398857Y-119546666D01*
X79541714Y-119546666D01*
X79636952Y-119594285D01*
X79684571Y-119641904D01*
X79732190Y-119737142D01*
X79732190Y-120118095D01*
X80208380Y-118594285D02*
X80208380Y-119165714D01*
X80208380Y-118880000D02*
X79208380Y-118880000D01*
X79351238Y-118975238D01*
X79446476Y-119070476D01*
X79494095Y-119165714D01*
X53538380Y-133008666D02*
X53062190Y-133342000D01*
X53538380Y-133580095D02*
X52538380Y-133580095D01*
X52538380Y-133199142D01*
X52586000Y-133103904D01*
X52633619Y-133056285D01*
X52728857Y-133008666D01*
X52871714Y-133008666D01*
X52966952Y-133056285D01*
X53014571Y-133103904D01*
X53062190Y-133199142D01*
X53062190Y-133580095D01*
X52966952Y-132437238D02*
X52919333Y-132532476D01*
X52871714Y-132580095D01*
X52776476Y-132627714D01*
X52728857Y-132627714D01*
X52633619Y-132580095D01*
X52586000Y-132532476D01*
X52538380Y-132437238D01*
X52538380Y-132246761D01*
X52586000Y-132151523D01*
X52633619Y-132103904D01*
X52728857Y-132056285D01*
X52776476Y-132056285D01*
X52871714Y-132103904D01*
X52919333Y-132151523D01*
X52966952Y-132246761D01*
X52966952Y-132437238D01*
X53014571Y-132532476D01*
X53062190Y-132580095D01*
X53157428Y-132627714D01*
X53347904Y-132627714D01*
X53443142Y-132580095D01*
X53490761Y-132532476D01*
X53538380Y-132437238D01*
X53538380Y-132246761D01*
X53490761Y-132151523D01*
X53443142Y-132103904D01*
X53347904Y-132056285D01*
X53157428Y-132056285D01*
X53062190Y-132103904D01*
X53014571Y-132151523D01*
X52966952Y-132246761D01*
X69431904Y-111172380D02*
X69431904Y-110172380D01*
X69670000Y-110172380D01*
X69812857Y-110220000D01*
X69908095Y-110315238D01*
X69955714Y-110410476D01*
X70003333Y-110600952D01*
X70003333Y-110743809D01*
X69955714Y-110934285D01*
X69908095Y-111029523D01*
X69812857Y-111124761D01*
X69670000Y-111172380D01*
X69431904Y-111172380D01*
X70860476Y-110505714D02*
X70860476Y-111172380D01*
X70622380Y-110124761D02*
X70384285Y-110839047D01*
X71003333Y-110839047D01*
X64285904Y-111196380D02*
X64285904Y-110196380D01*
X64524000Y-110196380D01*
X64666857Y-110244000D01*
X64762095Y-110339238D01*
X64809714Y-110434476D01*
X64857333Y-110624952D01*
X64857333Y-110767809D01*
X64809714Y-110958285D01*
X64762095Y-111053523D01*
X64666857Y-111148761D01*
X64524000Y-111196380D01*
X64285904Y-111196380D01*
X65190666Y-110196380D02*
X65809714Y-110196380D01*
X65476380Y-110577333D01*
X65619238Y-110577333D01*
X65714476Y-110624952D01*
X65762095Y-110672571D01*
X65809714Y-110767809D01*
X65809714Y-111005904D01*
X65762095Y-111101142D01*
X65714476Y-111148761D01*
X65619238Y-111196380D01*
X65333523Y-111196380D01*
X65238285Y-111148761D01*
X65190666Y-111101142D01*
X62253904Y-150820380D02*
X62253904Y-149820380D01*
X62492000Y-149820380D01*
X62634857Y-149868000D01*
X62730095Y-149963238D01*
X62777714Y-150058476D01*
X62825333Y-150248952D01*
X62825333Y-150391809D01*
X62777714Y-150582285D01*
X62730095Y-150677523D01*
X62634857Y-150772761D01*
X62492000Y-150820380D01*
X62253904Y-150820380D01*
X63206285Y-149915619D02*
X63253904Y-149868000D01*
X63349142Y-149820380D01*
X63587238Y-149820380D01*
X63682476Y-149868000D01*
X63730095Y-149915619D01*
X63777714Y-150010857D01*
X63777714Y-150106095D01*
X63730095Y-150248952D01*
X63158666Y-150820380D01*
X63777714Y-150820380D01*
X88669904Y-150820380D02*
X88669904Y-149820380D01*
X88908000Y-149820380D01*
X89050857Y-149868000D01*
X89146095Y-149963238D01*
X89193714Y-150058476D01*
X89241333Y-150248952D01*
X89241333Y-150391809D01*
X89193714Y-150582285D01*
X89146095Y-150677523D01*
X89050857Y-150772761D01*
X88908000Y-150820380D01*
X88669904Y-150820380D01*
X90193714Y-150820380D02*
X89622285Y-150820380D01*
X89908000Y-150820380D02*
X89908000Y-149820380D01*
X89812761Y-149963238D01*
X89717523Y-150058476D01*
X89622285Y-150106095D01*
X53538380Y-139358666D02*
X53062190Y-139692000D01*
X53538380Y-139930095D02*
X52538380Y-139930095D01*
X52538380Y-139549142D01*
X52586000Y-139453904D01*
X52633619Y-139406285D01*
X52728857Y-139358666D01*
X52871714Y-139358666D01*
X52966952Y-139406285D01*
X53014571Y-139453904D01*
X53062190Y-139549142D01*
X53062190Y-139930095D01*
X52538380Y-139025333D02*
X52538380Y-138358666D01*
X53538380Y-138787238D01*
X53538380Y-142533666D02*
X53062190Y-142867000D01*
X53538380Y-143105095D02*
X52538380Y-143105095D01*
X52538380Y-142724142D01*
X52586000Y-142628904D01*
X52633619Y-142581285D01*
X52728857Y-142533666D01*
X52871714Y-142533666D01*
X52966952Y-142581285D01*
X53014571Y-142628904D01*
X53062190Y-142724142D01*
X53062190Y-143105095D01*
X52538380Y-141676523D02*
X52538380Y-141867000D01*
X52586000Y-141962238D01*
X52633619Y-142009857D01*
X52776476Y-142105095D01*
X52966952Y-142152714D01*
X53347904Y-142152714D01*
X53443142Y-142105095D01*
X53490761Y-142057476D01*
X53538380Y-141962238D01*
X53538380Y-141771761D01*
X53490761Y-141676523D01*
X53443142Y-141628904D01*
X53347904Y-141581285D01*
X53109809Y-141581285D01*
X53014571Y-141628904D01*
X52966952Y-141676523D01*
X52919333Y-141771761D01*
X52919333Y-141962238D01*
X52966952Y-142057476D01*
X53014571Y-142105095D01*
X53109809Y-142152714D01*
X53538380Y-145708666D02*
X53062190Y-146042000D01*
X53538380Y-146280095D02*
X52538380Y-146280095D01*
X52538380Y-145899142D01*
X52586000Y-145803904D01*
X52633619Y-145756285D01*
X52728857Y-145708666D01*
X52871714Y-145708666D01*
X52966952Y-145756285D01*
X53014571Y-145803904D01*
X53062190Y-145899142D01*
X53062190Y-146280095D01*
X52538380Y-144803904D02*
X52538380Y-145280095D01*
X53014571Y-145327714D01*
X52966952Y-145280095D01*
X52919333Y-145184857D01*
X52919333Y-144946761D01*
X52966952Y-144851523D01*
X53014571Y-144803904D01*
X53109809Y-144756285D01*
X53347904Y-144756285D01*
X53443142Y-144803904D01*
X53490761Y-144851523D01*
X53538380Y-144946761D01*
X53538380Y-145184857D01*
X53490761Y-145280095D01*
X53443142Y-145327714D01*
X53538380Y-148883666D02*
X53062190Y-149217000D01*
X53538380Y-149455095D02*
X52538380Y-149455095D01*
X52538380Y-149074142D01*
X52586000Y-148978904D01*
X52633619Y-148931285D01*
X52728857Y-148883666D01*
X52871714Y-148883666D01*
X52966952Y-148931285D01*
X53014571Y-148978904D01*
X53062190Y-149074142D01*
X53062190Y-149455095D01*
X52871714Y-148026523D02*
X53538380Y-148026523D01*
X52490761Y-148264619D02*
X53205047Y-148502714D01*
X53205047Y-147883666D01*
X63349142Y-129960666D02*
X63396761Y-130008285D01*
X63444380Y-130151142D01*
X63444380Y-130246380D01*
X63396761Y-130389238D01*
X63301523Y-130484476D01*
X63206285Y-130532095D01*
X63015809Y-130579714D01*
X62872952Y-130579714D01*
X62682476Y-130532095D01*
X62587238Y-130484476D01*
X62492000Y-130389238D01*
X62444380Y-130246380D01*
X62444380Y-130151142D01*
X62492000Y-130008285D01*
X62539619Y-129960666D01*
X62872952Y-129389238D02*
X62825333Y-129484476D01*
X62777714Y-129532095D01*
X62682476Y-129579714D01*
X62634857Y-129579714D01*
X62539619Y-129532095D01*
X62492000Y-129484476D01*
X62444380Y-129389238D01*
X62444380Y-129198761D01*
X62492000Y-129103523D01*
X62539619Y-129055904D01*
X62634857Y-129008285D01*
X62682476Y-129008285D01*
X62777714Y-129055904D01*
X62825333Y-129103523D01*
X62872952Y-129198761D01*
X62872952Y-129389238D01*
X62920571Y-129484476D01*
X62968190Y-129532095D01*
X63063428Y-129579714D01*
X63253904Y-129579714D01*
X63349142Y-129532095D01*
X63396761Y-129484476D01*
X63444380Y-129389238D01*
X63444380Y-129198761D01*
X63396761Y-129103523D01*
X63349142Y-129055904D01*
X63253904Y-129008285D01*
X63063428Y-129008285D01*
X62968190Y-129055904D01*
X62920571Y-129103523D01*
X62872952Y-129198761D01*
X92289333Y-152757142D02*
X92241714Y-152804761D01*
X92098857Y-152852380D01*
X92003619Y-152852380D01*
X91860761Y-152804761D01*
X91765523Y-152709523D01*
X91717904Y-152614285D01*
X91670285Y-152423809D01*
X91670285Y-152280952D01*
X91717904Y-152090476D01*
X91765523Y-151995238D01*
X91860761Y-151900000D01*
X92003619Y-151852380D01*
X92098857Y-151852380D01*
X92241714Y-151900000D01*
X92289333Y-151947619D01*
X93194095Y-151852380D02*
X92717904Y-151852380D01*
X92670285Y-152328571D01*
X92717904Y-152280952D01*
X92813142Y-152233333D01*
X93051238Y-152233333D01*
X93146476Y-152280952D01*
X93194095Y-152328571D01*
X93241714Y-152423809D01*
X93241714Y-152661904D01*
X93194095Y-152757142D01*
X93146476Y-152804761D01*
X93051238Y-152852380D01*
X92813142Y-152852380D01*
X92717904Y-152804761D01*
X92670285Y-152757142D01*
X80097333Y-152757142D02*
X80049714Y-152804761D01*
X79906857Y-152852380D01*
X79811619Y-152852380D01*
X79668761Y-152804761D01*
X79573523Y-152709523D01*
X79525904Y-152614285D01*
X79478285Y-152423809D01*
X79478285Y-152280952D01*
X79525904Y-152090476D01*
X79573523Y-151995238D01*
X79668761Y-151900000D01*
X79811619Y-151852380D01*
X79906857Y-151852380D01*
X80049714Y-151900000D01*
X80097333Y-151947619D01*
X80954476Y-152185714D02*
X80954476Y-152852380D01*
X80716380Y-151804761D02*
X80478285Y-152519047D01*
X81097333Y-152519047D01*
X71969333Y-152757142D02*
X71921714Y-152804761D01*
X71778857Y-152852380D01*
X71683619Y-152852380D01*
X71540761Y-152804761D01*
X71445523Y-152709523D01*
X71397904Y-152614285D01*
X71350285Y-152423809D01*
X71350285Y-152280952D01*
X71397904Y-152090476D01*
X71445523Y-151995238D01*
X71540761Y-151900000D01*
X71683619Y-151852380D01*
X71778857Y-151852380D01*
X71921714Y-151900000D01*
X71969333Y-151947619D01*
X72302666Y-151852380D02*
X72921714Y-151852380D01*
X72588380Y-152233333D01*
X72731238Y-152233333D01*
X72826476Y-152280952D01*
X72874095Y-152328571D01*
X72921714Y-152423809D01*
X72921714Y-152661904D01*
X72874095Y-152757142D01*
X72826476Y-152804761D01*
X72731238Y-152852380D01*
X72445523Y-152852380D01*
X72350285Y-152804761D01*
X72302666Y-152757142D01*
X59777333Y-152757142D02*
X59729714Y-152804761D01*
X59586857Y-152852380D01*
X59491619Y-152852380D01*
X59348761Y-152804761D01*
X59253523Y-152709523D01*
X59205904Y-152614285D01*
X59158285Y-152423809D01*
X59158285Y-152280952D01*
X59205904Y-152090476D01*
X59253523Y-151995238D01*
X59348761Y-151900000D01*
X59491619Y-151852380D01*
X59586857Y-151852380D01*
X59729714Y-151900000D01*
X59777333Y-151947619D01*
X60158285Y-151947619D02*
X60205904Y-151900000D01*
X60301142Y-151852380D01*
X60539238Y-151852380D01*
X60634476Y-151900000D01*
X60682095Y-151947619D01*
X60729714Y-152042857D01*
X60729714Y-152138095D01*
X60682095Y-152280952D01*
X60110666Y-152852380D01*
X60729714Y-152852380D01*
X63349142Y-133262666D02*
X63396761Y-133310285D01*
X63444380Y-133453142D01*
X63444380Y-133548380D01*
X63396761Y-133691238D01*
X63301523Y-133786476D01*
X63206285Y-133834095D01*
X63015809Y-133881714D01*
X62872952Y-133881714D01*
X62682476Y-133834095D01*
X62587238Y-133786476D01*
X62492000Y-133691238D01*
X62444380Y-133548380D01*
X62444380Y-133453142D01*
X62492000Y-133310285D01*
X62539619Y-133262666D01*
X63444380Y-132310285D02*
X63444380Y-132881714D01*
X63444380Y-132596000D02*
X62444380Y-132596000D01*
X62587238Y-132691238D01*
X62682476Y-132786476D01*
X62730095Y-132881714D01*
X62824571Y-116157333D02*
X62824571Y-116490666D01*
X63348380Y-116490666D02*
X62348380Y-116490666D01*
X62348380Y-116014476D01*
X63348380Y-115109714D02*
X63348380Y-115681142D01*
X63348380Y-115395428D02*
X62348380Y-115395428D01*
X62491238Y-115490666D01*
X62586476Y-115585904D01*
X62634095Y-115681142D01*
X96168095Y-138212380D02*
X96168095Y-139021904D01*
X96215714Y-139117142D01*
X96263333Y-139164761D01*
X96358571Y-139212380D01*
X96549047Y-139212380D01*
X96644285Y-139164761D01*
X96691904Y-139117142D01*
X96739523Y-139021904D01*
X96739523Y-138212380D01*
X97739523Y-139212380D02*
X97168095Y-139212380D01*
X97453809Y-139212380D02*
X97453809Y-138212380D01*
X97358571Y-138355238D01*
X97263333Y-138450476D01*
X97168095Y-138498095D01*
X59182095Y-133310380D02*
X59182095Y-134119904D01*
X59229714Y-134215142D01*
X59277333Y-134262761D01*
X59372571Y-134310380D01*
X59563047Y-134310380D01*
X59658285Y-134262761D01*
X59705904Y-134215142D01*
X59753523Y-134119904D01*
X59753523Y-133310380D01*
X60182095Y-133405619D02*
X60229714Y-133358000D01*
X60324952Y-133310380D01*
X60563047Y-133310380D01*
X60658285Y-133358000D01*
X60705904Y-133405619D01*
X60753523Y-133500857D01*
X60753523Y-133596095D01*
X60705904Y-133738952D01*
X60134476Y-134310380D01*
X60753523Y-134310380D01*
X77390666Y-96886380D02*
X77390666Y-97600666D01*
X77343047Y-97743523D01*
X77247809Y-97838761D01*
X77104952Y-97886380D01*
X77009714Y-97886380D01*
X78390666Y-97886380D02*
X77819238Y-97886380D01*
X78104952Y-97886380D02*
X78104952Y-96886380D01*
X78009714Y-97029238D01*
X77914476Y-97124476D01*
X77819238Y-97172095D01*
X75866666Y-156018380D02*
X75866666Y-156732666D01*
X75819047Y-156875523D01*
X75723809Y-156970761D01*
X75580952Y-157018380D01*
X75485714Y-157018380D01*
X76295238Y-156113619D02*
X76342857Y-156066000D01*
X76438095Y-156018380D01*
X76676190Y-156018380D01*
X76771428Y-156066000D01*
X76819047Y-156113619D01*
X76866666Y-156208857D01*
X76866666Y-156304095D01*
X76819047Y-156446952D01*
X76247619Y-157018380D01*
X76866666Y-157018380D01*
M02*
