G04 #@! TF.GenerationSoftware,KiCad,Pcbnew,5.1.5-52549c5~84~ubuntu18.04.1*
G04 #@! TF.CreationDate,2019-12-06T09:50:21+01:00*
G04 #@! TF.ProjectId,esp8266_temperature_iot,65737038-3236-4365-9f74-656d70657261,rev?*
G04 #@! TF.SameCoordinates,Original*
G04 #@! TF.FileFunction,Soldermask,Bot*
G04 #@! TF.FilePolarity,Negative*
%FSLAX46Y46*%
G04 Gerber Fmt 4.6, Leading zero omitted, Abs format (unit mm)*
G04 Created by KiCad (PCBNEW 5.1.5-52549c5~84~ubuntu18.04.1) date 2019-12-06 09:50:21*
%MOMM*%
%LPD*%
G04 APERTURE LIST*
%ADD10C,0.100000*%
G04 APERTURE END LIST*
D10*
G36*
X96733870Y-157930786D02*
G01*
X96844779Y-157964430D01*
X96935053Y-157991814D01*
X96939529Y-157993172D01*
X97096165Y-158076896D01*
X97129059Y-158094478D01*
X97295186Y-158230814D01*
X97431522Y-158396941D01*
X97431525Y-158396945D01*
X97532828Y-158586470D01*
X97595214Y-158792129D01*
X97611000Y-158952409D01*
X97611000Y-160579591D01*
X97595214Y-160739871D01*
X97532828Y-160945530D01*
X97431525Y-161135055D01*
X97431523Y-161135058D01*
X97431522Y-161135059D01*
X97295186Y-161301186D01*
X97167583Y-161405906D01*
X97129055Y-161437525D01*
X96939530Y-161538828D01*
X96939527Y-161538829D01*
X96928058Y-161542308D01*
X96733871Y-161601214D01*
X96520000Y-161622278D01*
X96306130Y-161601214D01*
X96111943Y-161542308D01*
X96100474Y-161538829D01*
X96100471Y-161538828D01*
X95910946Y-161437525D01*
X95872418Y-161405906D01*
X95744815Y-161301186D01*
X95608479Y-161135059D01*
X95608478Y-161135058D01*
X95608476Y-161135055D01*
X95507171Y-160945527D01*
X95444786Y-160739874D01*
X95429000Y-160579591D01*
X95429000Y-158952410D01*
X95444786Y-158792130D01*
X95507172Y-158586471D01*
X95608477Y-158396943D01*
X95608478Y-158396941D01*
X95744814Y-158230814D01*
X95910941Y-158094478D01*
X95910942Y-158094477D01*
X95910945Y-158094475D01*
X96100470Y-157993172D01*
X96104947Y-157991814D01*
X96195220Y-157964430D01*
X96306129Y-157930786D01*
X96520000Y-157909722D01*
X96733870Y-157930786D01*
G37*
G36*
X61173870Y-157930786D02*
G01*
X61284779Y-157964430D01*
X61375053Y-157991814D01*
X61379529Y-157993172D01*
X61536165Y-158076896D01*
X61569059Y-158094478D01*
X61735186Y-158230814D01*
X61871522Y-158396941D01*
X61871525Y-158396945D01*
X61972828Y-158586470D01*
X62035214Y-158792129D01*
X62051000Y-158952409D01*
X62051000Y-160579591D01*
X62035214Y-160739871D01*
X61972828Y-160945530D01*
X61871525Y-161135055D01*
X61871523Y-161135058D01*
X61871522Y-161135059D01*
X61735186Y-161301186D01*
X61607583Y-161405906D01*
X61569055Y-161437525D01*
X61379530Y-161538828D01*
X61379527Y-161538829D01*
X61368058Y-161542308D01*
X61173871Y-161601214D01*
X60960000Y-161622278D01*
X60746130Y-161601214D01*
X60551943Y-161542308D01*
X60540474Y-161538829D01*
X60540471Y-161538828D01*
X60350946Y-161437525D01*
X60312418Y-161405906D01*
X60184815Y-161301186D01*
X60048479Y-161135059D01*
X60048478Y-161135058D01*
X60048476Y-161135055D01*
X59947171Y-160945527D01*
X59884786Y-160739874D01*
X59869000Y-160579591D01*
X59869000Y-158952410D01*
X59884786Y-158792130D01*
X59947172Y-158586471D01*
X60048477Y-158396943D01*
X60048478Y-158396941D01*
X60184814Y-158230814D01*
X60350941Y-158094478D01*
X60350942Y-158094477D01*
X60350945Y-158094475D01*
X60540470Y-157993172D01*
X60544947Y-157991814D01*
X60635220Y-157964430D01*
X60746129Y-157930786D01*
X60960000Y-157909722D01*
X61173870Y-157930786D01*
G37*
G36*
X66253870Y-157930786D02*
G01*
X66364779Y-157964430D01*
X66455053Y-157991814D01*
X66459529Y-157993172D01*
X66616165Y-158076896D01*
X66649059Y-158094478D01*
X66815186Y-158230814D01*
X66951522Y-158396941D01*
X66951525Y-158396945D01*
X67052828Y-158586470D01*
X67115214Y-158792129D01*
X67131000Y-158952409D01*
X67131000Y-160579591D01*
X67115214Y-160739871D01*
X67052828Y-160945530D01*
X66951525Y-161135055D01*
X66951523Y-161135058D01*
X66951522Y-161135059D01*
X66815186Y-161301186D01*
X66687583Y-161405906D01*
X66649055Y-161437525D01*
X66459530Y-161538828D01*
X66459527Y-161538829D01*
X66448058Y-161542308D01*
X66253871Y-161601214D01*
X66040000Y-161622278D01*
X65826130Y-161601214D01*
X65631943Y-161542308D01*
X65620474Y-161538829D01*
X65620471Y-161538828D01*
X65430946Y-161437525D01*
X65392418Y-161405906D01*
X65264815Y-161301186D01*
X65128479Y-161135059D01*
X65128478Y-161135058D01*
X65128476Y-161135055D01*
X65027171Y-160945527D01*
X64964786Y-160739874D01*
X64949000Y-160579591D01*
X64949000Y-158952410D01*
X64964786Y-158792130D01*
X65027172Y-158586471D01*
X65128477Y-158396943D01*
X65128478Y-158396941D01*
X65264814Y-158230814D01*
X65430941Y-158094478D01*
X65430942Y-158094477D01*
X65430945Y-158094475D01*
X65620470Y-157993172D01*
X65624947Y-157991814D01*
X65715220Y-157964430D01*
X65826129Y-157930786D01*
X66040000Y-157909722D01*
X66253870Y-157930786D01*
G37*
G36*
X71333870Y-157930786D02*
G01*
X71444779Y-157964430D01*
X71535053Y-157991814D01*
X71539529Y-157993172D01*
X71696165Y-158076896D01*
X71729059Y-158094478D01*
X71895186Y-158230814D01*
X72031522Y-158396941D01*
X72031525Y-158396945D01*
X72132828Y-158586470D01*
X72195214Y-158792129D01*
X72211000Y-158952409D01*
X72211000Y-160579591D01*
X72195214Y-160739871D01*
X72132828Y-160945530D01*
X72031525Y-161135055D01*
X72031523Y-161135058D01*
X72031522Y-161135059D01*
X71895186Y-161301186D01*
X71767583Y-161405906D01*
X71729055Y-161437525D01*
X71539530Y-161538828D01*
X71539527Y-161538829D01*
X71528058Y-161542308D01*
X71333871Y-161601214D01*
X71120000Y-161622278D01*
X70906130Y-161601214D01*
X70711943Y-161542308D01*
X70700474Y-161538829D01*
X70700471Y-161538828D01*
X70510946Y-161437525D01*
X70472418Y-161405906D01*
X70344815Y-161301186D01*
X70208479Y-161135059D01*
X70208478Y-161135058D01*
X70208476Y-161135055D01*
X70107171Y-160945527D01*
X70044786Y-160739874D01*
X70029000Y-160579591D01*
X70029000Y-158952410D01*
X70044786Y-158792130D01*
X70107172Y-158586471D01*
X70208477Y-158396943D01*
X70208478Y-158396941D01*
X70344814Y-158230814D01*
X70510941Y-158094478D01*
X70510942Y-158094477D01*
X70510945Y-158094475D01*
X70700470Y-157993172D01*
X70704947Y-157991814D01*
X70795220Y-157964430D01*
X70906129Y-157930786D01*
X71120000Y-157909722D01*
X71333870Y-157930786D01*
G37*
G36*
X76413870Y-157930786D02*
G01*
X76524779Y-157964430D01*
X76615053Y-157991814D01*
X76619529Y-157993172D01*
X76776165Y-158076896D01*
X76809059Y-158094478D01*
X76975186Y-158230814D01*
X77111522Y-158396941D01*
X77111525Y-158396945D01*
X77212828Y-158586470D01*
X77275214Y-158792129D01*
X77291000Y-158952409D01*
X77291000Y-160579591D01*
X77275214Y-160739871D01*
X77212828Y-160945530D01*
X77111525Y-161135055D01*
X77111523Y-161135058D01*
X77111522Y-161135059D01*
X76975186Y-161301186D01*
X76847583Y-161405906D01*
X76809055Y-161437525D01*
X76619530Y-161538828D01*
X76619527Y-161538829D01*
X76608058Y-161542308D01*
X76413871Y-161601214D01*
X76200000Y-161622278D01*
X75986130Y-161601214D01*
X75791943Y-161542308D01*
X75780474Y-161538829D01*
X75780471Y-161538828D01*
X75590946Y-161437525D01*
X75552418Y-161405906D01*
X75424815Y-161301186D01*
X75288479Y-161135059D01*
X75288478Y-161135058D01*
X75288476Y-161135055D01*
X75187171Y-160945527D01*
X75124786Y-160739874D01*
X75109000Y-160579591D01*
X75109000Y-158952410D01*
X75124786Y-158792130D01*
X75187172Y-158586471D01*
X75288477Y-158396943D01*
X75288478Y-158396941D01*
X75424814Y-158230814D01*
X75590941Y-158094478D01*
X75590942Y-158094477D01*
X75590945Y-158094475D01*
X75780470Y-157993172D01*
X75784947Y-157991814D01*
X75875220Y-157964430D01*
X75986129Y-157930786D01*
X76200000Y-157909722D01*
X76413870Y-157930786D01*
G37*
G36*
X81493870Y-157930786D02*
G01*
X81604779Y-157964430D01*
X81695053Y-157991814D01*
X81699529Y-157993172D01*
X81856165Y-158076896D01*
X81889059Y-158094478D01*
X82055186Y-158230814D01*
X82191522Y-158396941D01*
X82191525Y-158396945D01*
X82292828Y-158586470D01*
X82355214Y-158792129D01*
X82371000Y-158952409D01*
X82371000Y-160579591D01*
X82355214Y-160739871D01*
X82292828Y-160945530D01*
X82191525Y-161135055D01*
X82191523Y-161135058D01*
X82191522Y-161135059D01*
X82055186Y-161301186D01*
X81927583Y-161405906D01*
X81889055Y-161437525D01*
X81699530Y-161538828D01*
X81699527Y-161538829D01*
X81688058Y-161542308D01*
X81493871Y-161601214D01*
X81280000Y-161622278D01*
X81066130Y-161601214D01*
X80871943Y-161542308D01*
X80860474Y-161538829D01*
X80860471Y-161538828D01*
X80670946Y-161437525D01*
X80632418Y-161405906D01*
X80504815Y-161301186D01*
X80368479Y-161135059D01*
X80368478Y-161135058D01*
X80368476Y-161135055D01*
X80267171Y-160945527D01*
X80204786Y-160739874D01*
X80189000Y-160579591D01*
X80189000Y-158952410D01*
X80204786Y-158792130D01*
X80267172Y-158586471D01*
X80368477Y-158396943D01*
X80368478Y-158396941D01*
X80504814Y-158230814D01*
X80670941Y-158094478D01*
X80670942Y-158094477D01*
X80670945Y-158094475D01*
X80860470Y-157993172D01*
X80864947Y-157991814D01*
X80955220Y-157964430D01*
X81066129Y-157930786D01*
X81280000Y-157909722D01*
X81493870Y-157930786D01*
G37*
G36*
X86573870Y-157930786D02*
G01*
X86684779Y-157964430D01*
X86775053Y-157991814D01*
X86779529Y-157993172D01*
X86936165Y-158076896D01*
X86969059Y-158094478D01*
X87135186Y-158230814D01*
X87271522Y-158396941D01*
X87271525Y-158396945D01*
X87372828Y-158586470D01*
X87435214Y-158792129D01*
X87451000Y-158952409D01*
X87451000Y-160579591D01*
X87435214Y-160739871D01*
X87372828Y-160945530D01*
X87271525Y-161135055D01*
X87271523Y-161135058D01*
X87271522Y-161135059D01*
X87135186Y-161301186D01*
X87007583Y-161405906D01*
X86969055Y-161437525D01*
X86779530Y-161538828D01*
X86779527Y-161538829D01*
X86768058Y-161542308D01*
X86573871Y-161601214D01*
X86360000Y-161622278D01*
X86146130Y-161601214D01*
X85951943Y-161542308D01*
X85940474Y-161538829D01*
X85940471Y-161538828D01*
X85750946Y-161437525D01*
X85712418Y-161405906D01*
X85584815Y-161301186D01*
X85448479Y-161135059D01*
X85448478Y-161135058D01*
X85448476Y-161135055D01*
X85347171Y-160945527D01*
X85284786Y-160739874D01*
X85269000Y-160579591D01*
X85269000Y-158952410D01*
X85284786Y-158792130D01*
X85347172Y-158586471D01*
X85448477Y-158396943D01*
X85448478Y-158396941D01*
X85584814Y-158230814D01*
X85750941Y-158094478D01*
X85750942Y-158094477D01*
X85750945Y-158094475D01*
X85940470Y-157993172D01*
X85944947Y-157991814D01*
X86035220Y-157964430D01*
X86146129Y-157930786D01*
X86360000Y-157909722D01*
X86573870Y-157930786D01*
G37*
G36*
X91653870Y-157930786D02*
G01*
X91764779Y-157964430D01*
X91855053Y-157991814D01*
X91859529Y-157993172D01*
X92016165Y-158076896D01*
X92049059Y-158094478D01*
X92215186Y-158230814D01*
X92351522Y-158396941D01*
X92351525Y-158396945D01*
X92452828Y-158586470D01*
X92515214Y-158792129D01*
X92531000Y-158952409D01*
X92531000Y-160579591D01*
X92515214Y-160739871D01*
X92452828Y-160945530D01*
X92351525Y-161135055D01*
X92351523Y-161135058D01*
X92351522Y-161135059D01*
X92215186Y-161301186D01*
X92087583Y-161405906D01*
X92049055Y-161437525D01*
X91859530Y-161538828D01*
X91859527Y-161538829D01*
X91848058Y-161542308D01*
X91653871Y-161601214D01*
X91440000Y-161622278D01*
X91226130Y-161601214D01*
X91031943Y-161542308D01*
X91020474Y-161538829D01*
X91020471Y-161538828D01*
X90830946Y-161437525D01*
X90792418Y-161405906D01*
X90664815Y-161301186D01*
X90528479Y-161135059D01*
X90528478Y-161135058D01*
X90528476Y-161135055D01*
X90427171Y-160945527D01*
X90364786Y-160739874D01*
X90349000Y-160579591D01*
X90349000Y-158952410D01*
X90364786Y-158792130D01*
X90427172Y-158586471D01*
X90528477Y-158396943D01*
X90528478Y-158396941D01*
X90664814Y-158230814D01*
X90830941Y-158094478D01*
X90830942Y-158094477D01*
X90830945Y-158094475D01*
X91020470Y-157993172D01*
X91024947Y-157991814D01*
X91115220Y-157964430D01*
X91226129Y-157930786D01*
X91440000Y-157909722D01*
X91653870Y-157930786D01*
G37*
G36*
X56836217Y-157918808D02*
G01*
X56867489Y-157928294D01*
X56896308Y-157943698D01*
X56921570Y-157964430D01*
X56942302Y-157989692D01*
X56957706Y-158018511D01*
X56967192Y-158049783D01*
X56971000Y-158088448D01*
X56971000Y-161443552D01*
X56967192Y-161482217D01*
X56957706Y-161513489D01*
X56942302Y-161542308D01*
X56921570Y-161567570D01*
X56896308Y-161588302D01*
X56867489Y-161603706D01*
X56836217Y-161613192D01*
X56797552Y-161617000D01*
X54962448Y-161617000D01*
X54923783Y-161613192D01*
X54892511Y-161603706D01*
X54863692Y-161588302D01*
X54838430Y-161567570D01*
X54817698Y-161542308D01*
X54802294Y-161513489D01*
X54792808Y-161482217D01*
X54789000Y-161443552D01*
X54789000Y-158088448D01*
X54792808Y-158049783D01*
X54802294Y-158018511D01*
X54817698Y-157989692D01*
X54838430Y-157964430D01*
X54863692Y-157943698D01*
X54892511Y-157928294D01*
X54923783Y-157918808D01*
X54962448Y-157915000D01*
X56797552Y-157915000D01*
X56836217Y-157918808D01*
G37*
G36*
X98156823Y-128701313D02*
G01*
X98317242Y-128749976D01*
X98449906Y-128820886D01*
X98465078Y-128828996D01*
X98594659Y-128935341D01*
X98701004Y-129064922D01*
X98701005Y-129064924D01*
X98780024Y-129212758D01*
X98828687Y-129373177D01*
X98845117Y-129540000D01*
X98828687Y-129706823D01*
X98780024Y-129867242D01*
X98709114Y-129999906D01*
X98701004Y-130015078D01*
X98594659Y-130144659D01*
X98465078Y-130251004D01*
X98465076Y-130251005D01*
X98317242Y-130330024D01*
X98156823Y-130378687D01*
X98031804Y-130391000D01*
X97548196Y-130391000D01*
X97423177Y-130378687D01*
X97262758Y-130330024D01*
X97114924Y-130251005D01*
X97114922Y-130251004D01*
X96985341Y-130144659D01*
X96878996Y-130015078D01*
X96870886Y-129999906D01*
X96799976Y-129867242D01*
X96751313Y-129706823D01*
X96734883Y-129540000D01*
X96751313Y-129373177D01*
X96799976Y-129212758D01*
X96878995Y-129064924D01*
X96878996Y-129064922D01*
X96985341Y-128935341D01*
X97114922Y-128828996D01*
X97130094Y-128820886D01*
X97262758Y-128749976D01*
X97423177Y-128701313D01*
X97548196Y-128689000D01*
X98031804Y-128689000D01*
X98156823Y-128701313D01*
G37*
G36*
X75296823Y-128701313D02*
G01*
X75457242Y-128749976D01*
X75589906Y-128820886D01*
X75605078Y-128828996D01*
X75734659Y-128935341D01*
X75841004Y-129064922D01*
X75841005Y-129064924D01*
X75920024Y-129212758D01*
X75968687Y-129373177D01*
X75985117Y-129540000D01*
X75968687Y-129706823D01*
X75920024Y-129867242D01*
X75849114Y-129999906D01*
X75841004Y-130015078D01*
X75734659Y-130144659D01*
X75605078Y-130251004D01*
X75605076Y-130251005D01*
X75457242Y-130330024D01*
X75296823Y-130378687D01*
X75171804Y-130391000D01*
X74688196Y-130391000D01*
X74563177Y-130378687D01*
X74402758Y-130330024D01*
X74254924Y-130251005D01*
X74254922Y-130251004D01*
X74125341Y-130144659D01*
X74018996Y-130015078D01*
X74010886Y-129999906D01*
X73939976Y-129867242D01*
X73891313Y-129706823D01*
X73874883Y-129540000D01*
X73891313Y-129373177D01*
X73939976Y-129212758D01*
X74018995Y-129064924D01*
X74018996Y-129064922D01*
X74125341Y-128935341D01*
X74254922Y-128828996D01*
X74270094Y-128820886D01*
X74402758Y-128749976D01*
X74563177Y-128701313D01*
X74688196Y-128689000D01*
X75171804Y-128689000D01*
X75296823Y-128701313D01*
G37*
G36*
X57198585Y-125552802D02*
G01*
X57348410Y-125582604D01*
X57630674Y-125699521D01*
X57884705Y-125869259D01*
X58100741Y-126085295D01*
X58270479Y-126339326D01*
X58387396Y-126621590D01*
X58447000Y-126921240D01*
X58447000Y-127226760D01*
X58387396Y-127526410D01*
X58270479Y-127808674D01*
X58100741Y-128062705D01*
X57884705Y-128278741D01*
X57630674Y-128448479D01*
X57348410Y-128565396D01*
X57198585Y-128595198D01*
X57048761Y-128625000D01*
X56743239Y-128625000D01*
X56593415Y-128595198D01*
X56443590Y-128565396D01*
X56161326Y-128448479D01*
X55907295Y-128278741D01*
X55691259Y-128062705D01*
X55521521Y-127808674D01*
X55404604Y-127526410D01*
X55345000Y-127226760D01*
X55345000Y-126921240D01*
X55404604Y-126621590D01*
X55521521Y-126339326D01*
X55691259Y-126085295D01*
X55907295Y-125869259D01*
X56161326Y-125699521D01*
X56443590Y-125582604D01*
X56593415Y-125552802D01*
X56743239Y-125523000D01*
X57048761Y-125523000D01*
X57198585Y-125552802D01*
G37*
G36*
X75296823Y-126161313D02*
G01*
X75457242Y-126209976D01*
X75589906Y-126280886D01*
X75605078Y-126288996D01*
X75734659Y-126395341D01*
X75841004Y-126524922D01*
X75841005Y-126524924D01*
X75920024Y-126672758D01*
X75968687Y-126833177D01*
X75985117Y-127000000D01*
X75968687Y-127166823D01*
X75920024Y-127327242D01*
X75849114Y-127459906D01*
X75841004Y-127475078D01*
X75734659Y-127604659D01*
X75605078Y-127711004D01*
X75605076Y-127711005D01*
X75457242Y-127790024D01*
X75296823Y-127838687D01*
X75171804Y-127851000D01*
X74688196Y-127851000D01*
X74563177Y-127838687D01*
X74402758Y-127790024D01*
X74254924Y-127711005D01*
X74254922Y-127711004D01*
X74125341Y-127604659D01*
X74018996Y-127475078D01*
X74010886Y-127459906D01*
X73939976Y-127327242D01*
X73891313Y-127166823D01*
X73874883Y-127000000D01*
X73891313Y-126833177D01*
X73939976Y-126672758D01*
X74018995Y-126524924D01*
X74018996Y-126524922D01*
X74125341Y-126395341D01*
X74254922Y-126288996D01*
X74270094Y-126280886D01*
X74402758Y-126209976D01*
X74563177Y-126161313D01*
X74688196Y-126149000D01*
X75171804Y-126149000D01*
X75296823Y-126161313D01*
G37*
G36*
X98156823Y-126161313D02*
G01*
X98317242Y-126209976D01*
X98449906Y-126280886D01*
X98465078Y-126288996D01*
X98594659Y-126395341D01*
X98701004Y-126524922D01*
X98701005Y-126524924D01*
X98780024Y-126672758D01*
X98828687Y-126833177D01*
X98845117Y-127000000D01*
X98828687Y-127166823D01*
X98780024Y-127327242D01*
X98709114Y-127459906D01*
X98701004Y-127475078D01*
X98594659Y-127604659D01*
X98465078Y-127711004D01*
X98465076Y-127711005D01*
X98317242Y-127790024D01*
X98156823Y-127838687D01*
X98031804Y-127851000D01*
X97548196Y-127851000D01*
X97423177Y-127838687D01*
X97262758Y-127790024D01*
X97114924Y-127711005D01*
X97114922Y-127711004D01*
X96985341Y-127604659D01*
X96878996Y-127475078D01*
X96870886Y-127459906D01*
X96799976Y-127327242D01*
X96751313Y-127166823D01*
X96734883Y-127000000D01*
X96751313Y-126833177D01*
X96799976Y-126672758D01*
X96878995Y-126524924D01*
X96878996Y-126524922D01*
X96985341Y-126395341D01*
X97114922Y-126288996D01*
X97130094Y-126280886D01*
X97262758Y-126209976D01*
X97423177Y-126161313D01*
X97548196Y-126149000D01*
X98031804Y-126149000D01*
X98156823Y-126161313D01*
G37*
G36*
X75296823Y-123621313D02*
G01*
X75457242Y-123669976D01*
X75589906Y-123740886D01*
X75605078Y-123748996D01*
X75734659Y-123855341D01*
X75841004Y-123984922D01*
X75841005Y-123984924D01*
X75920024Y-124132758D01*
X75968687Y-124293177D01*
X75985117Y-124460000D01*
X75968687Y-124626823D01*
X75920024Y-124787242D01*
X75849114Y-124919906D01*
X75841004Y-124935078D01*
X75734659Y-125064659D01*
X75605078Y-125171004D01*
X75605076Y-125171005D01*
X75457242Y-125250024D01*
X75296823Y-125298687D01*
X75171804Y-125311000D01*
X74688196Y-125311000D01*
X74563177Y-125298687D01*
X74402758Y-125250024D01*
X74254924Y-125171005D01*
X74254922Y-125171004D01*
X74125341Y-125064659D01*
X74018996Y-124935078D01*
X74010886Y-124919906D01*
X73939976Y-124787242D01*
X73891313Y-124626823D01*
X73874883Y-124460000D01*
X73891313Y-124293177D01*
X73939976Y-124132758D01*
X74018995Y-123984924D01*
X74018996Y-123984922D01*
X74125341Y-123855341D01*
X74254922Y-123748996D01*
X74270094Y-123740886D01*
X74402758Y-123669976D01*
X74563177Y-123621313D01*
X74688196Y-123609000D01*
X75171804Y-123609000D01*
X75296823Y-123621313D01*
G37*
G36*
X98156823Y-123621313D02*
G01*
X98317242Y-123669976D01*
X98449906Y-123740886D01*
X98465078Y-123748996D01*
X98594659Y-123855341D01*
X98701004Y-123984922D01*
X98701005Y-123984924D01*
X98780024Y-124132758D01*
X98828687Y-124293177D01*
X98845117Y-124460000D01*
X98828687Y-124626823D01*
X98780024Y-124787242D01*
X98709114Y-124919906D01*
X98701004Y-124935078D01*
X98594659Y-125064659D01*
X98465078Y-125171004D01*
X98465076Y-125171005D01*
X98317242Y-125250024D01*
X98156823Y-125298687D01*
X98031804Y-125311000D01*
X97548196Y-125311000D01*
X97423177Y-125298687D01*
X97262758Y-125250024D01*
X97114924Y-125171005D01*
X97114922Y-125171004D01*
X96985341Y-125064659D01*
X96878996Y-124935078D01*
X96870886Y-124919906D01*
X96799976Y-124787242D01*
X96751313Y-124626823D01*
X96734883Y-124460000D01*
X96751313Y-124293177D01*
X96799976Y-124132758D01*
X96878995Y-123984924D01*
X96878996Y-123984922D01*
X96985341Y-123855341D01*
X97114922Y-123748996D01*
X97130094Y-123740886D01*
X97262758Y-123669976D01*
X97423177Y-123621313D01*
X97548196Y-123609000D01*
X98031804Y-123609000D01*
X98156823Y-123621313D01*
G37*
G36*
X75296823Y-121081313D02*
G01*
X75457242Y-121129976D01*
X75526155Y-121166811D01*
X75605078Y-121208996D01*
X75734659Y-121315341D01*
X75841004Y-121444922D01*
X75841005Y-121444924D01*
X75920024Y-121592758D01*
X75968687Y-121753177D01*
X75985117Y-121920000D01*
X75968687Y-122086823D01*
X75920024Y-122247242D01*
X75849114Y-122379906D01*
X75841004Y-122395078D01*
X75734659Y-122524659D01*
X75605078Y-122631004D01*
X75605076Y-122631005D01*
X75457242Y-122710024D01*
X75296823Y-122758687D01*
X75171804Y-122771000D01*
X74688196Y-122771000D01*
X74563177Y-122758687D01*
X74402758Y-122710024D01*
X74254924Y-122631005D01*
X74254922Y-122631004D01*
X74125341Y-122524659D01*
X74018996Y-122395078D01*
X74010886Y-122379906D01*
X73939976Y-122247242D01*
X73891313Y-122086823D01*
X73874883Y-121920000D01*
X73891313Y-121753177D01*
X73939976Y-121592758D01*
X74018995Y-121444924D01*
X74018996Y-121444922D01*
X74125341Y-121315341D01*
X74254922Y-121208996D01*
X74333845Y-121166811D01*
X74402758Y-121129976D01*
X74563177Y-121081313D01*
X74688196Y-121069000D01*
X75171804Y-121069000D01*
X75296823Y-121081313D01*
G37*
G36*
X98156823Y-121081313D02*
G01*
X98317242Y-121129976D01*
X98386155Y-121166811D01*
X98465078Y-121208996D01*
X98594659Y-121315341D01*
X98701004Y-121444922D01*
X98701005Y-121444924D01*
X98780024Y-121592758D01*
X98828687Y-121753177D01*
X98845117Y-121920000D01*
X98828687Y-122086823D01*
X98780024Y-122247242D01*
X98709114Y-122379906D01*
X98701004Y-122395078D01*
X98594659Y-122524659D01*
X98465078Y-122631004D01*
X98465076Y-122631005D01*
X98317242Y-122710024D01*
X98156823Y-122758687D01*
X98031804Y-122771000D01*
X97548196Y-122771000D01*
X97423177Y-122758687D01*
X97262758Y-122710024D01*
X97114924Y-122631005D01*
X97114922Y-122631004D01*
X96985341Y-122524659D01*
X96878996Y-122395078D01*
X96870886Y-122379906D01*
X96799976Y-122247242D01*
X96751313Y-122086823D01*
X96734883Y-121920000D01*
X96751313Y-121753177D01*
X96799976Y-121592758D01*
X96878995Y-121444924D01*
X96878996Y-121444922D01*
X96985341Y-121315341D01*
X97114922Y-121208996D01*
X97193845Y-121166811D01*
X97262758Y-121129976D01*
X97423177Y-121081313D01*
X97548196Y-121069000D01*
X98031804Y-121069000D01*
X98156823Y-121081313D01*
G37*
G36*
X67677512Y-120007927D02*
G01*
X67826812Y-120037624D01*
X67990784Y-120105544D01*
X68138354Y-120204147D01*
X68263853Y-120329646D01*
X68362456Y-120477216D01*
X68430376Y-120641188D01*
X68465000Y-120815259D01*
X68465000Y-120992741D01*
X68430376Y-121166812D01*
X68362456Y-121330784D01*
X68263853Y-121478354D01*
X68138354Y-121603853D01*
X67990784Y-121702456D01*
X67826812Y-121770376D01*
X67677512Y-121800073D01*
X67652742Y-121805000D01*
X67475258Y-121805000D01*
X67450488Y-121800073D01*
X67301188Y-121770376D01*
X67137216Y-121702456D01*
X66989646Y-121603853D01*
X66864147Y-121478354D01*
X66765544Y-121330784D01*
X66697624Y-121166812D01*
X66663000Y-120992741D01*
X66663000Y-120815259D01*
X66697624Y-120641188D01*
X66765544Y-120477216D01*
X66864147Y-120329646D01*
X66989646Y-120204147D01*
X67137216Y-120105544D01*
X67301188Y-120037624D01*
X67450488Y-120007927D01*
X67475258Y-120003000D01*
X67652742Y-120003000D01*
X67677512Y-120007927D01*
G37*
G36*
X75296823Y-118541313D02*
G01*
X75457242Y-118589976D01*
X75526155Y-118626811D01*
X75605078Y-118668996D01*
X75734659Y-118775341D01*
X75841004Y-118904922D01*
X75841005Y-118904924D01*
X75920024Y-119052758D01*
X75968687Y-119213177D01*
X75985117Y-119380000D01*
X75968687Y-119546823D01*
X75920024Y-119707242D01*
X75849114Y-119839906D01*
X75841004Y-119855078D01*
X75734659Y-119984659D01*
X75605078Y-120091004D01*
X75605076Y-120091005D01*
X75457242Y-120170024D01*
X75296823Y-120218687D01*
X75171804Y-120231000D01*
X74688196Y-120231000D01*
X74563177Y-120218687D01*
X74402758Y-120170024D01*
X74254924Y-120091005D01*
X74254922Y-120091004D01*
X74125341Y-119984659D01*
X74018996Y-119855078D01*
X74010886Y-119839906D01*
X73939976Y-119707242D01*
X73891313Y-119546823D01*
X73874883Y-119380000D01*
X73891313Y-119213177D01*
X73939976Y-119052758D01*
X74018995Y-118904924D01*
X74018996Y-118904922D01*
X74125341Y-118775341D01*
X74254922Y-118668996D01*
X74333845Y-118626811D01*
X74402758Y-118589976D01*
X74563177Y-118541313D01*
X74688196Y-118529000D01*
X75171804Y-118529000D01*
X75296823Y-118541313D01*
G37*
G36*
X98156823Y-118541313D02*
G01*
X98317242Y-118589976D01*
X98386155Y-118626811D01*
X98465078Y-118668996D01*
X98594659Y-118775341D01*
X98701004Y-118904922D01*
X98701005Y-118904924D01*
X98780024Y-119052758D01*
X98828687Y-119213177D01*
X98845117Y-119380000D01*
X98828687Y-119546823D01*
X98780024Y-119707242D01*
X98709114Y-119839906D01*
X98701004Y-119855078D01*
X98594659Y-119984659D01*
X98465078Y-120091004D01*
X98465076Y-120091005D01*
X98317242Y-120170024D01*
X98156823Y-120218687D01*
X98031804Y-120231000D01*
X97548196Y-120231000D01*
X97423177Y-120218687D01*
X97262758Y-120170024D01*
X97114924Y-120091005D01*
X97114922Y-120091004D01*
X96985341Y-119984659D01*
X96878996Y-119855078D01*
X96870886Y-119839906D01*
X96799976Y-119707242D01*
X96751313Y-119546823D01*
X96734883Y-119380000D01*
X96751313Y-119213177D01*
X96799976Y-119052758D01*
X96878995Y-118904924D01*
X96878996Y-118904922D01*
X96985341Y-118775341D01*
X97114922Y-118668996D01*
X97193845Y-118626811D01*
X97262758Y-118589976D01*
X97423177Y-118541313D01*
X97548196Y-118529000D01*
X98031804Y-118529000D01*
X98156823Y-118541313D01*
G37*
G36*
X67677512Y-117467927D02*
G01*
X67826812Y-117497624D01*
X67990784Y-117565544D01*
X68138354Y-117664147D01*
X68263853Y-117789646D01*
X68362456Y-117937216D01*
X68430376Y-118101188D01*
X68465000Y-118275259D01*
X68465000Y-118452741D01*
X68430376Y-118626812D01*
X68362456Y-118790784D01*
X68263853Y-118938354D01*
X68138354Y-119063853D01*
X67990784Y-119162456D01*
X67826812Y-119230376D01*
X67677512Y-119260073D01*
X67652742Y-119265000D01*
X67475258Y-119265000D01*
X67450488Y-119260073D01*
X67301188Y-119230376D01*
X67137216Y-119162456D01*
X66989646Y-119063853D01*
X66864147Y-118938354D01*
X66765544Y-118790784D01*
X66697624Y-118626812D01*
X66663000Y-118452741D01*
X66663000Y-118275259D01*
X66697624Y-118101188D01*
X66765544Y-117937216D01*
X66864147Y-117789646D01*
X66989646Y-117664147D01*
X67137216Y-117565544D01*
X67301188Y-117497624D01*
X67450488Y-117467927D01*
X67475258Y-117463000D01*
X67652742Y-117463000D01*
X67677512Y-117467927D01*
G37*
G36*
X98156823Y-116001313D02*
G01*
X98317242Y-116049976D01*
X98386155Y-116086811D01*
X98465078Y-116128996D01*
X98594659Y-116235341D01*
X98701004Y-116364922D01*
X98701005Y-116364924D01*
X98780024Y-116512758D01*
X98828687Y-116673177D01*
X98845117Y-116840000D01*
X98828687Y-117006823D01*
X98780024Y-117167242D01*
X98709114Y-117299906D01*
X98701004Y-117315078D01*
X98594659Y-117444659D01*
X98465078Y-117551004D01*
X98465076Y-117551005D01*
X98317242Y-117630024D01*
X98156823Y-117678687D01*
X98031804Y-117691000D01*
X97548196Y-117691000D01*
X97423177Y-117678687D01*
X97262758Y-117630024D01*
X97114924Y-117551005D01*
X97114922Y-117551004D01*
X96985341Y-117444659D01*
X96878996Y-117315078D01*
X96870886Y-117299906D01*
X96799976Y-117167242D01*
X96751313Y-117006823D01*
X96734883Y-116840000D01*
X96751313Y-116673177D01*
X96799976Y-116512758D01*
X96878995Y-116364924D01*
X96878996Y-116364922D01*
X96985341Y-116235341D01*
X97114922Y-116128996D01*
X97193845Y-116086811D01*
X97262758Y-116049976D01*
X97423177Y-116001313D01*
X97548196Y-115989000D01*
X98031804Y-115989000D01*
X98156823Y-116001313D01*
G37*
G36*
X75296823Y-116001313D02*
G01*
X75457242Y-116049976D01*
X75526155Y-116086811D01*
X75605078Y-116128996D01*
X75734659Y-116235341D01*
X75841004Y-116364922D01*
X75841005Y-116364924D01*
X75920024Y-116512758D01*
X75968687Y-116673177D01*
X75985117Y-116840000D01*
X75968687Y-117006823D01*
X75920024Y-117167242D01*
X75849114Y-117299906D01*
X75841004Y-117315078D01*
X75734659Y-117444659D01*
X75605078Y-117551004D01*
X75605076Y-117551005D01*
X75457242Y-117630024D01*
X75296823Y-117678687D01*
X75171804Y-117691000D01*
X74688196Y-117691000D01*
X74563177Y-117678687D01*
X74402758Y-117630024D01*
X74254924Y-117551005D01*
X74254922Y-117551004D01*
X74125341Y-117444659D01*
X74018996Y-117315078D01*
X74010886Y-117299906D01*
X73939976Y-117167242D01*
X73891313Y-117006823D01*
X73874883Y-116840000D01*
X73891313Y-116673177D01*
X73939976Y-116512758D01*
X74018995Y-116364924D01*
X74018996Y-116364922D01*
X74125341Y-116235341D01*
X74254922Y-116128996D01*
X74333845Y-116086811D01*
X74402758Y-116049976D01*
X74563177Y-116001313D01*
X74688196Y-115989000D01*
X75171804Y-115989000D01*
X75296823Y-116001313D01*
G37*
G36*
X57214433Y-114458893D02*
G01*
X57304657Y-114476839D01*
X57410267Y-114520585D01*
X57559621Y-114582449D01*
X57559622Y-114582450D01*
X57789086Y-114735772D01*
X57984228Y-114930914D01*
X58047457Y-115025544D01*
X58137551Y-115160379D01*
X58243161Y-115415344D01*
X58297000Y-115686012D01*
X58297000Y-115961988D01*
X58243161Y-116232656D01*
X58137551Y-116487621D01*
X58086675Y-116563763D01*
X57984228Y-116717086D01*
X57789086Y-116912228D01*
X57647514Y-117006823D01*
X57559621Y-117065551D01*
X57410267Y-117127415D01*
X57304657Y-117171161D01*
X57214433Y-117189107D01*
X57033988Y-117225000D01*
X56758012Y-117225000D01*
X56577567Y-117189107D01*
X56487343Y-117171161D01*
X56381733Y-117127415D01*
X56232379Y-117065551D01*
X56144486Y-117006823D01*
X56002914Y-116912228D01*
X55807772Y-116717086D01*
X55705325Y-116563763D01*
X55654449Y-116487621D01*
X55548839Y-116232656D01*
X55495000Y-115961988D01*
X55495000Y-115686012D01*
X55548839Y-115415344D01*
X55654449Y-115160379D01*
X55744543Y-115025544D01*
X55807772Y-114930914D01*
X56002914Y-114735772D01*
X56232378Y-114582450D01*
X56232379Y-114582449D01*
X56381733Y-114520585D01*
X56487343Y-114476839D01*
X56577567Y-114458893D01*
X56758012Y-114423000D01*
X57033988Y-114423000D01*
X57214433Y-114458893D01*
G37*
G36*
X67677512Y-114927927D02*
G01*
X67826812Y-114957624D01*
X67990784Y-115025544D01*
X68138354Y-115124147D01*
X68263853Y-115249646D01*
X68362456Y-115397216D01*
X68430376Y-115561188D01*
X68465000Y-115735259D01*
X68465000Y-115912741D01*
X68430376Y-116086812D01*
X68362456Y-116250784D01*
X68263853Y-116398354D01*
X68138354Y-116523853D01*
X67990784Y-116622456D01*
X67826812Y-116690376D01*
X67692533Y-116717085D01*
X67652742Y-116725000D01*
X67475258Y-116725000D01*
X67435467Y-116717085D01*
X67301188Y-116690376D01*
X67137216Y-116622456D01*
X66989646Y-116523853D01*
X66864147Y-116398354D01*
X66765544Y-116250784D01*
X66697624Y-116086812D01*
X66663000Y-115912741D01*
X66663000Y-115735259D01*
X66697624Y-115561188D01*
X66765544Y-115397216D01*
X66864147Y-115249646D01*
X66989646Y-115124147D01*
X67137216Y-115025544D01*
X67301188Y-114957624D01*
X67450488Y-114927927D01*
X67475258Y-114923000D01*
X67652742Y-114923000D01*
X67677512Y-114927927D01*
G37*
G36*
X98156823Y-113461313D02*
G01*
X98317242Y-113509976D01*
X98449906Y-113580886D01*
X98465078Y-113588996D01*
X98594659Y-113695341D01*
X98701004Y-113824922D01*
X98701005Y-113824924D01*
X98780024Y-113972758D01*
X98828687Y-114133177D01*
X98845117Y-114300000D01*
X98828687Y-114466823D01*
X98780024Y-114627242D01*
X98722013Y-114735772D01*
X98701004Y-114775078D01*
X98594659Y-114904659D01*
X98465078Y-115011004D01*
X98465076Y-115011005D01*
X98317242Y-115090024D01*
X98156823Y-115138687D01*
X98031804Y-115151000D01*
X97548196Y-115151000D01*
X97423177Y-115138687D01*
X97262758Y-115090024D01*
X97114924Y-115011005D01*
X97114922Y-115011004D01*
X96985341Y-114904659D01*
X96878996Y-114775078D01*
X96857987Y-114735772D01*
X96799976Y-114627242D01*
X96751313Y-114466823D01*
X96734883Y-114300000D01*
X96751313Y-114133177D01*
X96799976Y-113972758D01*
X96878995Y-113824924D01*
X96878996Y-113824922D01*
X96985341Y-113695341D01*
X97114922Y-113588996D01*
X97130094Y-113580886D01*
X97262758Y-113509976D01*
X97423177Y-113461313D01*
X97548196Y-113449000D01*
X98031804Y-113449000D01*
X98156823Y-113461313D01*
G37*
G36*
X75296823Y-113461313D02*
G01*
X75457242Y-113509976D01*
X75589906Y-113580886D01*
X75605078Y-113588996D01*
X75734659Y-113695341D01*
X75841004Y-113824922D01*
X75841005Y-113824924D01*
X75920024Y-113972758D01*
X75968687Y-114133177D01*
X75985117Y-114300000D01*
X75968687Y-114466823D01*
X75920024Y-114627242D01*
X75862013Y-114735772D01*
X75841004Y-114775078D01*
X75734659Y-114904659D01*
X75605078Y-115011004D01*
X75605076Y-115011005D01*
X75457242Y-115090024D01*
X75296823Y-115138687D01*
X75171804Y-115151000D01*
X74688196Y-115151000D01*
X74563177Y-115138687D01*
X74402758Y-115090024D01*
X74254924Y-115011005D01*
X74254922Y-115011004D01*
X74125341Y-114904659D01*
X74018996Y-114775078D01*
X73997987Y-114735772D01*
X73939976Y-114627242D01*
X73891313Y-114466823D01*
X73874883Y-114300000D01*
X73891313Y-114133177D01*
X73939976Y-113972758D01*
X74018995Y-113824924D01*
X74018996Y-113824922D01*
X74125341Y-113695341D01*
X74254922Y-113588996D01*
X74270094Y-113580886D01*
X74402758Y-113509976D01*
X74563177Y-113461313D01*
X74688196Y-113449000D01*
X75171804Y-113449000D01*
X75296823Y-113461313D01*
G37*
G36*
X68465000Y-114185000D02*
G01*
X66663000Y-114185000D01*
X66663000Y-112383000D01*
X68465000Y-112383000D01*
X68465000Y-114185000D01*
G37*
G36*
X75981000Y-112811000D02*
G01*
X73879000Y-112811000D01*
X73879000Y-110709000D01*
X75981000Y-110709000D01*
X75981000Y-112811000D01*
G37*
G36*
X98156823Y-110921313D02*
G01*
X98317242Y-110969976D01*
X98449906Y-111040886D01*
X98465078Y-111048996D01*
X98594659Y-111155341D01*
X98701004Y-111284922D01*
X98701005Y-111284924D01*
X98780024Y-111432758D01*
X98828687Y-111593177D01*
X98845117Y-111760000D01*
X98828687Y-111926823D01*
X98780024Y-112087242D01*
X98709114Y-112219906D01*
X98701004Y-112235078D01*
X98594659Y-112364659D01*
X98465078Y-112471004D01*
X98465076Y-112471005D01*
X98317242Y-112550024D01*
X98156823Y-112598687D01*
X98031804Y-112611000D01*
X97548196Y-112611000D01*
X97423177Y-112598687D01*
X97262758Y-112550024D01*
X97114924Y-112471005D01*
X97114922Y-112471004D01*
X96985341Y-112364659D01*
X96878996Y-112235078D01*
X96870886Y-112219906D01*
X96799976Y-112087242D01*
X96751313Y-111926823D01*
X96734883Y-111760000D01*
X96751313Y-111593177D01*
X96799976Y-111432758D01*
X96878995Y-111284924D01*
X96878996Y-111284922D01*
X96985341Y-111155341D01*
X97114922Y-111048996D01*
X97130094Y-111040886D01*
X97262758Y-110969976D01*
X97423177Y-110921313D01*
X97548196Y-110909000D01*
X98031804Y-110909000D01*
X98156823Y-110921313D01*
G37*
G36*
X57198585Y-103052802D02*
G01*
X57348410Y-103082604D01*
X57630674Y-103199521D01*
X57884705Y-103369259D01*
X58100741Y-103585295D01*
X58270479Y-103839326D01*
X58387396Y-104121590D01*
X58447000Y-104421240D01*
X58447000Y-104726760D01*
X58387396Y-105026410D01*
X58270479Y-105308674D01*
X58100741Y-105562705D01*
X57884705Y-105778741D01*
X57630674Y-105948479D01*
X57348410Y-106065396D01*
X57198585Y-106095198D01*
X57048761Y-106125000D01*
X56743239Y-106125000D01*
X56593415Y-106095198D01*
X56443590Y-106065396D01*
X56161326Y-105948479D01*
X55907295Y-105778741D01*
X55691259Y-105562705D01*
X55521521Y-105308674D01*
X55404604Y-105026410D01*
X55345000Y-104726760D01*
X55345000Y-104421240D01*
X55404604Y-104121590D01*
X55521521Y-103839326D01*
X55691259Y-103585295D01*
X55907295Y-103369259D01*
X56161326Y-103199521D01*
X56443590Y-103082604D01*
X56593415Y-103052802D01*
X56743239Y-103023000D01*
X57048761Y-103023000D01*
X57198585Y-103052802D01*
G37*
G36*
X91653871Y-92398786D02*
G01*
X91764780Y-92432430D01*
X91855054Y-92459814D01*
X91859530Y-92461172D01*
X92049055Y-92562475D01*
X92049058Y-92562477D01*
X92049059Y-92562478D01*
X92215186Y-92698814D01*
X92351522Y-92864941D01*
X92351525Y-92864945D01*
X92452828Y-93054470D01*
X92515214Y-93260129D01*
X92531000Y-93420409D01*
X92531000Y-95047591D01*
X92515214Y-95207871D01*
X92452828Y-95413530D01*
X92351525Y-95603055D01*
X92351523Y-95603057D01*
X92351522Y-95603059D01*
X92215186Y-95769186D01*
X92049059Y-95905522D01*
X92049057Y-95905523D01*
X91859529Y-96006828D01*
X91859526Y-96006829D01*
X91848057Y-96010308D01*
X91653870Y-96069214D01*
X91440000Y-96090278D01*
X91226129Y-96069214D01*
X91031942Y-96010308D01*
X91020473Y-96006829D01*
X91020470Y-96006828D01*
X90830945Y-95905525D01*
X90792417Y-95873906D01*
X90664814Y-95769186D01*
X90528478Y-95603059D01*
X90427173Y-95413530D01*
X90427172Y-95413529D01*
X90364786Y-95207870D01*
X90349000Y-95047590D01*
X90349000Y-93420409D01*
X90364786Y-93260126D01*
X90427171Y-93054473D01*
X90528476Y-92864945D01*
X90528479Y-92864941D01*
X90664815Y-92698814D01*
X90830942Y-92562478D01*
X90830943Y-92562477D01*
X90830946Y-92562475D01*
X91020471Y-92461172D01*
X91024948Y-92459814D01*
X91115221Y-92432430D01*
X91226130Y-92398786D01*
X91440000Y-92377722D01*
X91653871Y-92398786D01*
G37*
G36*
X56093871Y-92398786D02*
G01*
X56204780Y-92432430D01*
X56295054Y-92459814D01*
X56299530Y-92461172D01*
X56489055Y-92562475D01*
X56489058Y-92562477D01*
X56489059Y-92562478D01*
X56655186Y-92698814D01*
X56791522Y-92864941D01*
X56791525Y-92864945D01*
X56892828Y-93054470D01*
X56955214Y-93260129D01*
X56971000Y-93420409D01*
X56971000Y-95047591D01*
X56955214Y-95207871D01*
X56892828Y-95413530D01*
X56791525Y-95603055D01*
X56791523Y-95603057D01*
X56791522Y-95603059D01*
X56655186Y-95769186D01*
X56489059Y-95905522D01*
X56489057Y-95905523D01*
X56299529Y-96006828D01*
X56299526Y-96006829D01*
X56288057Y-96010308D01*
X56093870Y-96069214D01*
X55880000Y-96090278D01*
X55666129Y-96069214D01*
X55471942Y-96010308D01*
X55460473Y-96006829D01*
X55460470Y-96006828D01*
X55270945Y-95905525D01*
X55232417Y-95873906D01*
X55104814Y-95769186D01*
X54968478Y-95603059D01*
X54867173Y-95413530D01*
X54867172Y-95413529D01*
X54804786Y-95207870D01*
X54789000Y-95047590D01*
X54789000Y-93420409D01*
X54804786Y-93260126D01*
X54867171Y-93054473D01*
X54968476Y-92864945D01*
X54968479Y-92864941D01*
X55104815Y-92698814D01*
X55270942Y-92562478D01*
X55270943Y-92562477D01*
X55270946Y-92562475D01*
X55460471Y-92461172D01*
X55464948Y-92459814D01*
X55555221Y-92432430D01*
X55666130Y-92398786D01*
X55880000Y-92377722D01*
X56093871Y-92398786D01*
G37*
G36*
X76413871Y-92398786D02*
G01*
X76524780Y-92432430D01*
X76615054Y-92459814D01*
X76619530Y-92461172D01*
X76809055Y-92562475D01*
X76809058Y-92562477D01*
X76809059Y-92562478D01*
X76975186Y-92698814D01*
X77111522Y-92864941D01*
X77111525Y-92864945D01*
X77212828Y-93054470D01*
X77275214Y-93260129D01*
X77291000Y-93420409D01*
X77291000Y-95047591D01*
X77275214Y-95207871D01*
X77212828Y-95413530D01*
X77111525Y-95603055D01*
X77111523Y-95603057D01*
X77111522Y-95603059D01*
X76975186Y-95769186D01*
X76809059Y-95905522D01*
X76809057Y-95905523D01*
X76619529Y-96006828D01*
X76619526Y-96006829D01*
X76608057Y-96010308D01*
X76413870Y-96069214D01*
X76200000Y-96090278D01*
X75986129Y-96069214D01*
X75791942Y-96010308D01*
X75780473Y-96006829D01*
X75780470Y-96006828D01*
X75590945Y-95905525D01*
X75552417Y-95873906D01*
X75424814Y-95769186D01*
X75288478Y-95603059D01*
X75187173Y-95413530D01*
X75187172Y-95413529D01*
X75124786Y-95207870D01*
X75109000Y-95047590D01*
X75109000Y-93420409D01*
X75124786Y-93260126D01*
X75187171Y-93054473D01*
X75288476Y-92864945D01*
X75288479Y-92864941D01*
X75424815Y-92698814D01*
X75590942Y-92562478D01*
X75590943Y-92562477D01*
X75590946Y-92562475D01*
X75780471Y-92461172D01*
X75784948Y-92459814D01*
X75875221Y-92432430D01*
X75986130Y-92398786D01*
X76200000Y-92377722D01*
X76413871Y-92398786D01*
G37*
G36*
X81493871Y-92398786D02*
G01*
X81604780Y-92432430D01*
X81695054Y-92459814D01*
X81699530Y-92461172D01*
X81889055Y-92562475D01*
X81889058Y-92562477D01*
X81889059Y-92562478D01*
X82055186Y-92698814D01*
X82191522Y-92864941D01*
X82191525Y-92864945D01*
X82292828Y-93054470D01*
X82355214Y-93260129D01*
X82371000Y-93420409D01*
X82371000Y-95047591D01*
X82355214Y-95207871D01*
X82292828Y-95413530D01*
X82191525Y-95603055D01*
X82191523Y-95603057D01*
X82191522Y-95603059D01*
X82055186Y-95769186D01*
X81889059Y-95905522D01*
X81889057Y-95905523D01*
X81699529Y-96006828D01*
X81699526Y-96006829D01*
X81688057Y-96010308D01*
X81493870Y-96069214D01*
X81280000Y-96090278D01*
X81066129Y-96069214D01*
X80871942Y-96010308D01*
X80860473Y-96006829D01*
X80860470Y-96006828D01*
X80670945Y-95905525D01*
X80632417Y-95873906D01*
X80504814Y-95769186D01*
X80368478Y-95603059D01*
X80267173Y-95413530D01*
X80267172Y-95413529D01*
X80204786Y-95207870D01*
X80189000Y-95047590D01*
X80189000Y-93420409D01*
X80204786Y-93260126D01*
X80267171Y-93054473D01*
X80368476Y-92864945D01*
X80368479Y-92864941D01*
X80504815Y-92698814D01*
X80670942Y-92562478D01*
X80670943Y-92562477D01*
X80670946Y-92562475D01*
X80860471Y-92461172D01*
X80864948Y-92459814D01*
X80955221Y-92432430D01*
X81066130Y-92398786D01*
X81280000Y-92377722D01*
X81493871Y-92398786D01*
G37*
G36*
X71333871Y-92398786D02*
G01*
X71444780Y-92432430D01*
X71535054Y-92459814D01*
X71539530Y-92461172D01*
X71729055Y-92562475D01*
X71729058Y-92562477D01*
X71729059Y-92562478D01*
X71895186Y-92698814D01*
X72031522Y-92864941D01*
X72031525Y-92864945D01*
X72132828Y-93054470D01*
X72195214Y-93260129D01*
X72211000Y-93420409D01*
X72211000Y-95047591D01*
X72195214Y-95207871D01*
X72132828Y-95413530D01*
X72031525Y-95603055D01*
X72031523Y-95603057D01*
X72031522Y-95603059D01*
X71895186Y-95769186D01*
X71729059Y-95905522D01*
X71729057Y-95905523D01*
X71539529Y-96006828D01*
X71539526Y-96006829D01*
X71528057Y-96010308D01*
X71333870Y-96069214D01*
X71120000Y-96090278D01*
X70906129Y-96069214D01*
X70711942Y-96010308D01*
X70700473Y-96006829D01*
X70700470Y-96006828D01*
X70510945Y-95905525D01*
X70472417Y-95873906D01*
X70344814Y-95769186D01*
X70208478Y-95603059D01*
X70107173Y-95413530D01*
X70107172Y-95413529D01*
X70044786Y-95207870D01*
X70029000Y-95047590D01*
X70029000Y-93420409D01*
X70044786Y-93260126D01*
X70107171Y-93054473D01*
X70208476Y-92864945D01*
X70208479Y-92864941D01*
X70344815Y-92698814D01*
X70510942Y-92562478D01*
X70510943Y-92562477D01*
X70510946Y-92562475D01*
X70700471Y-92461172D01*
X70704948Y-92459814D01*
X70795221Y-92432430D01*
X70906130Y-92398786D01*
X71120000Y-92377722D01*
X71333871Y-92398786D01*
G37*
G36*
X61173871Y-92398786D02*
G01*
X61284780Y-92432430D01*
X61375054Y-92459814D01*
X61379530Y-92461172D01*
X61569055Y-92562475D01*
X61569058Y-92562477D01*
X61569059Y-92562478D01*
X61735186Y-92698814D01*
X61871522Y-92864941D01*
X61871525Y-92864945D01*
X61972828Y-93054470D01*
X62035214Y-93260129D01*
X62051000Y-93420409D01*
X62051000Y-95047591D01*
X62035214Y-95207871D01*
X61972828Y-95413530D01*
X61871525Y-95603055D01*
X61871523Y-95603057D01*
X61871522Y-95603059D01*
X61735186Y-95769186D01*
X61569059Y-95905522D01*
X61569057Y-95905523D01*
X61379529Y-96006828D01*
X61379526Y-96006829D01*
X61368057Y-96010308D01*
X61173870Y-96069214D01*
X60960000Y-96090278D01*
X60746129Y-96069214D01*
X60551942Y-96010308D01*
X60540473Y-96006829D01*
X60540470Y-96006828D01*
X60350945Y-95905525D01*
X60312417Y-95873906D01*
X60184814Y-95769186D01*
X60048478Y-95603059D01*
X59947173Y-95413530D01*
X59947172Y-95413529D01*
X59884786Y-95207870D01*
X59869000Y-95047590D01*
X59869000Y-93420409D01*
X59884786Y-93260126D01*
X59947171Y-93054473D01*
X60048476Y-92864945D01*
X60048479Y-92864941D01*
X60184815Y-92698814D01*
X60350942Y-92562478D01*
X60350943Y-92562477D01*
X60350946Y-92562475D01*
X60540471Y-92461172D01*
X60544948Y-92459814D01*
X60635221Y-92432430D01*
X60746130Y-92398786D01*
X60960000Y-92377722D01*
X61173871Y-92398786D01*
G37*
G36*
X66253871Y-92398786D02*
G01*
X66364780Y-92432430D01*
X66455054Y-92459814D01*
X66459530Y-92461172D01*
X66649055Y-92562475D01*
X66649058Y-92562477D01*
X66649059Y-92562478D01*
X66815186Y-92698814D01*
X66951522Y-92864941D01*
X66951525Y-92864945D01*
X67052828Y-93054470D01*
X67115214Y-93260129D01*
X67131000Y-93420409D01*
X67131000Y-95047591D01*
X67115214Y-95207871D01*
X67052828Y-95413530D01*
X66951525Y-95603055D01*
X66951523Y-95603057D01*
X66951522Y-95603059D01*
X66815186Y-95769186D01*
X66649059Y-95905522D01*
X66649057Y-95905523D01*
X66459529Y-96006828D01*
X66459526Y-96006829D01*
X66448057Y-96010308D01*
X66253870Y-96069214D01*
X66040000Y-96090278D01*
X65826129Y-96069214D01*
X65631942Y-96010308D01*
X65620473Y-96006829D01*
X65620470Y-96006828D01*
X65430945Y-95905525D01*
X65392417Y-95873906D01*
X65264814Y-95769186D01*
X65128478Y-95603059D01*
X65027173Y-95413530D01*
X65027172Y-95413529D01*
X64964786Y-95207870D01*
X64949000Y-95047590D01*
X64949000Y-93420409D01*
X64964786Y-93260126D01*
X65027171Y-93054473D01*
X65128476Y-92864945D01*
X65128479Y-92864941D01*
X65264815Y-92698814D01*
X65430942Y-92562478D01*
X65430943Y-92562477D01*
X65430946Y-92562475D01*
X65620471Y-92461172D01*
X65624948Y-92459814D01*
X65715221Y-92432430D01*
X65826130Y-92398786D01*
X66040000Y-92377722D01*
X66253871Y-92398786D01*
G37*
G36*
X86573871Y-92398786D02*
G01*
X86684780Y-92432430D01*
X86775054Y-92459814D01*
X86779530Y-92461172D01*
X86969055Y-92562475D01*
X86969058Y-92562477D01*
X86969059Y-92562478D01*
X87135186Y-92698814D01*
X87271522Y-92864941D01*
X87271525Y-92864945D01*
X87372828Y-93054470D01*
X87435214Y-93260129D01*
X87451000Y-93420409D01*
X87451000Y-95047591D01*
X87435214Y-95207871D01*
X87372828Y-95413530D01*
X87271525Y-95603055D01*
X87271523Y-95603057D01*
X87271522Y-95603059D01*
X87135186Y-95769186D01*
X86969059Y-95905522D01*
X86969057Y-95905523D01*
X86779529Y-96006828D01*
X86779526Y-96006829D01*
X86768057Y-96010308D01*
X86573870Y-96069214D01*
X86360000Y-96090278D01*
X86146129Y-96069214D01*
X85951942Y-96010308D01*
X85940473Y-96006829D01*
X85940470Y-96006828D01*
X85750945Y-95905525D01*
X85712417Y-95873906D01*
X85584814Y-95769186D01*
X85448478Y-95603059D01*
X85347173Y-95413530D01*
X85347172Y-95413529D01*
X85284786Y-95207870D01*
X85269000Y-95047590D01*
X85269000Y-93420409D01*
X85284786Y-93260126D01*
X85347171Y-93054473D01*
X85448476Y-92864945D01*
X85448479Y-92864941D01*
X85584815Y-92698814D01*
X85750942Y-92562478D01*
X85750943Y-92562477D01*
X85750946Y-92562475D01*
X85940471Y-92461172D01*
X85944948Y-92459814D01*
X86035221Y-92432430D01*
X86146130Y-92398786D01*
X86360000Y-92377722D01*
X86573871Y-92398786D01*
G37*
G36*
X97476217Y-92386808D02*
G01*
X97507489Y-92396294D01*
X97536308Y-92411698D01*
X97561570Y-92432430D01*
X97582302Y-92457692D01*
X97597706Y-92486511D01*
X97607192Y-92517783D01*
X97611000Y-92556448D01*
X97611000Y-95911552D01*
X97607192Y-95950217D01*
X97597706Y-95981489D01*
X97582302Y-96010308D01*
X97561570Y-96035570D01*
X97536308Y-96056302D01*
X97507489Y-96071706D01*
X97476217Y-96081192D01*
X97437552Y-96085000D01*
X95602448Y-96085000D01*
X95563783Y-96081192D01*
X95532511Y-96071706D01*
X95503692Y-96056302D01*
X95478430Y-96035570D01*
X95457698Y-96010308D01*
X95442294Y-95981489D01*
X95432808Y-95950217D01*
X95429000Y-95911552D01*
X95429000Y-92556448D01*
X95432808Y-92517783D01*
X95442294Y-92486511D01*
X95457698Y-92457692D01*
X95478430Y-92432430D01*
X95503692Y-92411698D01*
X95532511Y-92396294D01*
X95563783Y-92386808D01*
X95602448Y-92383000D01*
X97437552Y-92383000D01*
X97476217Y-92386808D01*
G37*
M02*
