M48
; DRILL file {KiCad 5.1.5-52549c5~84~ubuntu18.04.1} date fre  6 dec 2019 09:48:38
; FORMAT={-:-/ absolute / inch / decimal}
; #@! TF.CreationDate,2019-12-06T09:48:38+01:00
; #@! TF.GenerationSoftware,Kicad,Pcbnew,5.1.5-52549c5~84~ubuntu18.04.1
; #@! TF.FileFunction,Plated,1,2,PTH
FMAT,2
INCH
T1C0.0157
T2C0.0394
T3C0.0512
T4C0.0551
%
G90
G05
T1
X2.3187Y-5.795
X2.5574Y-3.9826
X2.5574Y-4.0426
X2.5858Y-5.7542
X2.7Y-5.3
X2.7Y-5.41
X2.715Y-5.705
T2
X2.95Y-4.4
X2.95Y-4.5
X2.95Y-4.6
X2.95Y-4.7
X2.95Y-4.8
X2.95Y-4.9
X2.95Y-5.0
X2.95Y-5.1
X3.85Y-4.4
X3.85Y-4.5
X3.85Y-4.6
X3.85Y-4.7
X3.85Y-4.8
X3.85Y-4.9
X3.85Y-5.0
X3.85Y-5.1
X2.66Y-4.46
X2.66Y-4.56
X2.66Y-4.66
X2.66Y-4.76
T3
X2.24Y-4.1171
X2.24Y-5.0029
T4
X2.2Y-3.71
X2.4Y-3.71
X2.6Y-3.71
X2.8Y-3.71
X3.0Y-3.71
X3.2Y-3.71
X3.4Y-3.71
X3.6Y-3.71
X3.8Y-3.71
X2.2Y-6.29
X2.4Y-6.29
X2.6Y-6.29
X2.8Y-6.29
X3.0Y-6.29
X3.2Y-6.29
X3.4Y-6.29
X3.6Y-6.29
X3.8Y-6.29
T0
M30
